<mxfile host="app.diagrams.net" agent="Mozilla/5.0 (Windows NT 10.0; Win64; x64; rv:142.0) Gecko/20100101 Firefox/142.0" version="28.2.3" pages="12">
  <diagram name="Linear" id="87Vv4dUvOYdlAS4Sd_av">
    <mxGraphModel dx="1246" dy="1110" grid="1" gridSize="10" guides="1" tooltips="1" connect="1" arrows="0" fold="1" page="1" pageScale="1" pageWidth="827" pageHeight="1169" math="0" shadow="0">
      <root>
        <mxCell id="0" />
        <mxCell id="1" parent="0" />
        <mxCell id="x4WzadpgJugs8lmT1jso-27" value="" style="group" vertex="1" connectable="0" parent="1">
          <mxGeometry x="40" y="40" width="120" height="300" as="geometry" />
        </mxCell>
        <mxCell id="x4WzadpgJugs8lmT1jso-1" value="&lt;font face=&quot;Helvetica&quot;&gt;&lt;b&gt;&lt;font style=&quot;font-size: 24px;&quot;&gt;0&lt;/font&gt;&lt;/b&gt;&lt;/font&gt;" style="ellipse;whiteSpace=wrap;html=1;fillColor=#ffe6cc;strokeColor=#d79b00;" vertex="1" parent="x4WzadpgJugs8lmT1jso-27">
          <mxGeometry width="80" height="80" as="geometry" />
        </mxCell>
        <mxCell id="x4WzadpgJugs8lmT1jso-3" style="edgeStyle=orthogonalEdgeStyle;rounded=0;orthogonalLoop=1;jettySize=auto;html=1;exitX=0.5;exitY=0;exitDx=0;exitDy=0;entryX=0.5;entryY=1;entryDx=0;entryDy=0;dashed=1;" edge="1" parent="x4WzadpgJugs8lmT1jso-27" source="x4WzadpgJugs8lmT1jso-22" target="x4WzadpgJugs8lmT1jso-1">
          <mxGeometry relative="1" as="geometry">
            <mxPoint x="40" y="10" as="sourcePoint" />
          </mxGeometry>
        </mxCell>
        <mxCell id="x4WzadpgJugs8lmT1jso-6" style="edgeStyle=orthogonalEdgeStyle;rounded=0;orthogonalLoop=1;jettySize=auto;html=1;exitX=0.5;exitY=0;exitDx=0;exitDy=0;entryX=0.5;entryY=1;entryDx=0;entryDy=0;dashed=1;" edge="1" parent="x4WzadpgJugs8lmT1jso-27" source="x4WzadpgJugs8lmT1jso-5" target="x4WzadpgJugs8lmT1jso-22">
          <mxGeometry relative="1" as="geometry">
            <mxPoint x="-230" y="-100" as="targetPoint" />
          </mxGeometry>
        </mxCell>
        <mxCell id="x4WzadpgJugs8lmT1jso-5" value="&lt;font style=&quot;font-size: 24px;&quot;&gt;&lt;b&gt;N&lt;/b&gt;&lt;/font&gt;" style="ellipse;whiteSpace=wrap;html=1;fillColor=#ffe6cc;strokeColor=#d79b00;" vertex="1" parent="x4WzadpgJugs8lmT1jso-27">
          <mxGeometry y="220" width="80" height="80" as="geometry" />
        </mxCell>
        <mxCell id="x4WzadpgJugs8lmT1jso-7" value="N" style="shape=curlyBracket;whiteSpace=wrap;html=1;rounded=1;flipH=1;labelPosition=right;verticalLabelPosition=middle;align=left;verticalAlign=middle;" vertex="1" parent="x4WzadpgJugs8lmT1jso-27">
          <mxGeometry x="100" y="20" width="20" height="260" as="geometry" />
        </mxCell>
        <mxCell id="x4WzadpgJugs8lmT1jso-22" value="&lt;font style=&quot;font-size: 23px;&quot; face=&quot;Helvetica&quot;&gt;&lt;b&gt;&lt;font&gt;1 .. N-1&lt;/font&gt;&lt;/b&gt;&lt;/font&gt;" style="ellipse;whiteSpace=wrap;html=1;fillColor=#ffe6cc;strokeColor=#d79b00;" vertex="1" parent="x4WzadpgJugs8lmT1jso-27">
          <mxGeometry y="110" width="80" height="80" as="geometry" />
        </mxCell>
      </root>
    </mxGraphModel>
  </diagram>
  <diagram name="Linear - no text" id="CzsxwNe7lTND3hyjUROY">
    <mxGraphModel dx="1246" dy="1110" grid="1" gridSize="10" guides="1" tooltips="1" connect="1" arrows="0" fold="1" page="1" pageScale="1" pageWidth="827" pageHeight="1169" math="0" shadow="0">
      <root>
        <mxCell id="oGwC_EzGJuRYbvoP42V_-0" />
        <mxCell id="oGwC_EzGJuRYbvoP42V_-1" parent="oGwC_EzGJuRYbvoP42V_-0" />
        <mxCell id="oGwC_EzGJuRYbvoP42V_-2" value="" style="group" vertex="1" connectable="0" parent="oGwC_EzGJuRYbvoP42V_-1">
          <mxGeometry x="40" y="40" width="120" height="300" as="geometry" />
        </mxCell>
        <mxCell id="oGwC_EzGJuRYbvoP42V_-3" value="" style="ellipse;whiteSpace=wrap;html=1;fillColor=#ffe6cc;strokeColor=#d79b00;" vertex="1" parent="oGwC_EzGJuRYbvoP42V_-2">
          <mxGeometry width="80" height="80" as="geometry" />
        </mxCell>
        <mxCell id="oGwC_EzGJuRYbvoP42V_-4" style="edgeStyle=orthogonalEdgeStyle;rounded=0;orthogonalLoop=1;jettySize=auto;html=1;exitX=0.5;exitY=0;exitDx=0;exitDy=0;entryX=0.5;entryY=1;entryDx=0;entryDy=0;dashed=1;" edge="1" parent="oGwC_EzGJuRYbvoP42V_-2" source="oGwC_EzGJuRYbvoP42V_-8" target="oGwC_EzGJuRYbvoP42V_-3">
          <mxGeometry relative="1" as="geometry">
            <mxPoint x="40" y="10" as="sourcePoint" />
          </mxGeometry>
        </mxCell>
        <mxCell id="oGwC_EzGJuRYbvoP42V_-5" style="edgeStyle=orthogonalEdgeStyle;rounded=0;orthogonalLoop=1;jettySize=auto;html=1;exitX=0.5;exitY=0;exitDx=0;exitDy=0;entryX=0.5;entryY=1;entryDx=0;entryDy=0;dashed=1;" edge="1" parent="oGwC_EzGJuRYbvoP42V_-2" source="oGwC_EzGJuRYbvoP42V_-6" target="oGwC_EzGJuRYbvoP42V_-8">
          <mxGeometry relative="1" as="geometry">
            <mxPoint x="-230" y="-100" as="targetPoint" />
          </mxGeometry>
        </mxCell>
        <mxCell id="oGwC_EzGJuRYbvoP42V_-6" value="" style="ellipse;whiteSpace=wrap;html=1;fillColor=#ffe6cc;strokeColor=#d79b00;" vertex="1" parent="oGwC_EzGJuRYbvoP42V_-2">
          <mxGeometry y="220" width="80" height="80" as="geometry" />
        </mxCell>
        <mxCell id="oGwC_EzGJuRYbvoP42V_-7" value="N" style="shape=curlyBracket;whiteSpace=wrap;html=1;rounded=1;flipH=1;labelPosition=right;verticalLabelPosition=middle;align=left;verticalAlign=middle;" vertex="1" parent="oGwC_EzGJuRYbvoP42V_-2">
          <mxGeometry x="100" y="20" width="20" height="260" as="geometry" />
        </mxCell>
        <mxCell id="oGwC_EzGJuRYbvoP42V_-8" value="" style="ellipse;whiteSpace=wrap;html=1;fillColor=#ffe6cc;strokeColor=#d79b00;" vertex="1" parent="oGwC_EzGJuRYbvoP42V_-2">
          <mxGeometry y="110" width="80" height="80" as="geometry" />
        </mxCell>
      </root>
    </mxGraphModel>
  </diagram>
  <diagram id="fecUNsKuvYbYkTvljzV1" name="Tree">
    <mxGraphModel dx="1246" dy="1110" grid="1" gridSize="10" guides="1" tooltips="1" connect="1" arrows="1" fold="1" page="1" pageScale="1" pageWidth="827" pageHeight="1169" math="0" shadow="0">
      <root>
        <mxCell id="0" />
        <mxCell id="1" parent="0" />
        <mxCell id="yt1coTvWrNMhEXyIwxAG-1" value="" style="group" vertex="1" connectable="0" parent="1">
          <mxGeometry x="30" y="40" width="200" height="307.5" as="geometry" />
        </mxCell>
        <mxCell id="yt1coTvWrNMhEXyIwxAG-2" value="&lt;font face=&quot;Helvetica&quot;&gt;&lt;b&gt;&lt;font style=&quot;font-size: 24px;&quot;&gt;0&lt;/font&gt;&lt;/b&gt;&lt;/font&gt;" style="ellipse;whiteSpace=wrap;html=1;fillColor=#d5e8d4;strokeColor=#82b366;" vertex="1" parent="yt1coTvWrNMhEXyIwxAG-1">
          <mxGeometry x="60" width="80" height="80" as="geometry" />
        </mxCell>
        <mxCell id="yt1coTvWrNMhEXyIwxAG-3" style="edgeStyle=orthogonalEdgeStyle;rounded=0;orthogonalLoop=1;jettySize=auto;html=1;exitX=0.5;exitY=0;exitDx=0;exitDy=0;entryX=0.5;entryY=1;entryDx=0;entryDy=0;" edge="1" parent="yt1coTvWrNMhEXyIwxAG-1" source="yt1coTvWrNMhEXyIwxAG-4" target="yt1coTvWrNMhEXyIwxAG-2">
          <mxGeometry relative="1" as="geometry">
            <Array as="points">
              <mxPoint x="40" y="100" />
              <mxPoint x="100" y="100" />
            </Array>
          </mxGeometry>
        </mxCell>
        <mxCell id="yt1coTvWrNMhEXyIwxAG-4" value="&lt;font style=&quot;font-size: 23px;&quot; face=&quot;Helvetica&quot;&gt;&lt;b&gt;&lt;font&gt;1 .. N-1&lt;/font&gt;&lt;/b&gt;&lt;/font&gt;" style="ellipse;whiteSpace=wrap;html=1;fillColor=#d5e8d4;strokeColor=#82b366;" vertex="1" parent="yt1coTvWrNMhEXyIwxAG-1">
          <mxGeometry y="130" width="80" height="80" as="geometry" />
        </mxCell>
        <mxCell id="yt1coTvWrNMhEXyIwxAG-5" style="edgeStyle=orthogonalEdgeStyle;rounded=0;orthogonalLoop=1;jettySize=auto;html=1;exitX=0.5;exitY=0;exitDx=0;exitDy=0;" edge="1" parent="yt1coTvWrNMhEXyIwxAG-1" source="yt1coTvWrNMhEXyIwxAG-6">
          <mxGeometry relative="1" as="geometry">
            <mxPoint x="99.85714285714289" y="80" as="targetPoint" />
            <Array as="points">
              <mxPoint x="160" y="100" />
              <mxPoint x="100" y="100" />
            </Array>
          </mxGeometry>
        </mxCell>
        <mxCell id="yt1coTvWrNMhEXyIwxAG-6" value="&lt;font face=&quot;Helvetica&quot;&gt;&lt;b&gt;&lt;font style=&quot;font-size: 24px;&quot;&gt;N&lt;/font&gt;&lt;/b&gt;&lt;/font&gt;" style="ellipse;whiteSpace=wrap;html=1;fillColor=#d5e8d4;strokeColor=#82b366;" vertex="1" parent="yt1coTvWrNMhEXyIwxAG-1">
          <mxGeometry x="120" y="130" width="80" height="80" as="geometry" />
        </mxCell>
        <mxCell id="yt1coTvWrNMhEXyIwxAG-7" value="" style="shape=curlyBracket;whiteSpace=wrap;html=1;rounded=1;flipH=1;labelPosition=right;verticalLabelPosition=middle;align=left;verticalAlign=middle;rotation=90;" vertex="1" parent="yt1coTvWrNMhEXyIwxAG-1">
          <mxGeometry x="91.5" y="172.5" width="20" height="135" as="geometry" />
        </mxCell>
        <mxCell id="yt1coTvWrNMhEXyIwxAG-8" value="N" style="text;html=1;align=center;verticalAlign=middle;whiteSpace=wrap;rounded=0;" vertex="1" parent="yt1coTvWrNMhEXyIwxAG-1">
          <mxGeometry x="70" y="140" width="60" height="30" as="geometry" />
        </mxCell>
        <mxCell id="yt1coTvWrNMhEXyIwxAG-9" value="" style="endArrow=none;dashed=1;html=1;dashPattern=1 3;strokeWidth=2;rounded=0;entryX=0;entryY=0.5;entryDx=0;entryDy=0;exitX=1.029;exitY=0.503;exitDx=0;exitDy=0;exitPerimeter=0;" edge="1" parent="yt1coTvWrNMhEXyIwxAG-1" source="yt1coTvWrNMhEXyIwxAG-4" target="yt1coTvWrNMhEXyIwxAG-6">
          <mxGeometry width="50" height="50" relative="1" as="geometry">
            <mxPoint x="60" y="230" as="sourcePoint" />
            <mxPoint x="110" y="180" as="targetPoint" />
          </mxGeometry>
        </mxCell>
        <mxCell id="yt1coTvWrNMhEXyIwxAG-10" value="N" style="text;html=1;align=center;verticalAlign=middle;whiteSpace=wrap;rounded=0;" vertex="1" parent="yt1coTvWrNMhEXyIwxAG-1">
          <mxGeometry x="70" y="245" width="60" height="30" as="geometry" />
        </mxCell>
      </root>
    </mxGraphModel>
  </diagram>
  <diagram name="Tree - no text" id="yrgD99U0CLFzjr5a99kt">
    <mxGraphModel dx="1246" dy="1110" grid="1" gridSize="10" guides="1" tooltips="1" connect="1" arrows="1" fold="1" page="1" pageScale="1" pageWidth="827" pageHeight="1169" math="0" shadow="0">
      <root>
        <mxCell id="vwX1RIcoZE9_m3LfSMPV-0" />
        <mxCell id="vwX1RIcoZE9_m3LfSMPV-1" parent="vwX1RIcoZE9_m3LfSMPV-0" />
        <mxCell id="vwX1RIcoZE9_m3LfSMPV-2" value="" style="group" vertex="1" connectable="0" parent="vwX1RIcoZE9_m3LfSMPV-1">
          <mxGeometry x="30" y="40" width="200" height="307.5" as="geometry" />
        </mxCell>
        <mxCell id="vwX1RIcoZE9_m3LfSMPV-3" value="" style="ellipse;whiteSpace=wrap;html=1;fillColor=#d5e8d4;strokeColor=#82b366;" vertex="1" parent="vwX1RIcoZE9_m3LfSMPV-2">
          <mxGeometry x="60" width="80" height="80" as="geometry" />
        </mxCell>
        <mxCell id="vwX1RIcoZE9_m3LfSMPV-4" style="edgeStyle=orthogonalEdgeStyle;rounded=0;orthogonalLoop=1;jettySize=auto;html=1;exitX=0.5;exitY=0;exitDx=0;exitDy=0;entryX=0.5;entryY=1;entryDx=0;entryDy=0;" edge="1" parent="vwX1RIcoZE9_m3LfSMPV-2" source="vwX1RIcoZE9_m3LfSMPV-5" target="vwX1RIcoZE9_m3LfSMPV-3">
          <mxGeometry relative="1" as="geometry">
            <Array as="points">
              <mxPoint x="40" y="100" />
              <mxPoint x="100" y="100" />
            </Array>
          </mxGeometry>
        </mxCell>
        <mxCell id="vwX1RIcoZE9_m3LfSMPV-5" value="" style="ellipse;whiteSpace=wrap;html=1;fillColor=#d5e8d4;strokeColor=#82b366;" vertex="1" parent="vwX1RIcoZE9_m3LfSMPV-2">
          <mxGeometry y="130" width="80" height="80" as="geometry" />
        </mxCell>
        <mxCell id="vwX1RIcoZE9_m3LfSMPV-6" style="edgeStyle=orthogonalEdgeStyle;rounded=0;orthogonalLoop=1;jettySize=auto;html=1;exitX=0.5;exitY=0;exitDx=0;exitDy=0;" edge="1" parent="vwX1RIcoZE9_m3LfSMPV-2" source="vwX1RIcoZE9_m3LfSMPV-7">
          <mxGeometry relative="1" as="geometry">
            <mxPoint x="99.85714285714289" y="80" as="targetPoint" />
            <Array as="points">
              <mxPoint x="160" y="100" />
              <mxPoint x="100" y="100" />
            </Array>
          </mxGeometry>
        </mxCell>
        <mxCell id="vwX1RIcoZE9_m3LfSMPV-7" value="" style="ellipse;whiteSpace=wrap;html=1;fillColor=#d5e8d4;strokeColor=#82b366;" vertex="1" parent="vwX1RIcoZE9_m3LfSMPV-2">
          <mxGeometry x="120" y="130" width="80" height="80" as="geometry" />
        </mxCell>
        <mxCell id="vwX1RIcoZE9_m3LfSMPV-8" value="" style="shape=curlyBracket;whiteSpace=wrap;html=1;rounded=1;flipH=1;labelPosition=right;verticalLabelPosition=middle;align=left;verticalAlign=middle;rotation=90;" vertex="1" parent="vwX1RIcoZE9_m3LfSMPV-2">
          <mxGeometry x="91.5" y="172.5" width="20" height="135" as="geometry" />
        </mxCell>
        <mxCell id="vwX1RIcoZE9_m3LfSMPV-9" value="N" style="text;html=1;align=center;verticalAlign=middle;whiteSpace=wrap;rounded=0;" vertex="1" parent="vwX1RIcoZE9_m3LfSMPV-2">
          <mxGeometry x="70" y="140" width="60" height="30" as="geometry" />
        </mxCell>
        <mxCell id="vwX1RIcoZE9_m3LfSMPV-10" value="" style="endArrow=none;dashed=1;html=1;dashPattern=1 3;strokeWidth=2;rounded=0;entryX=0;entryY=0.5;entryDx=0;entryDy=0;exitX=1.029;exitY=0.503;exitDx=0;exitDy=0;exitPerimeter=0;" edge="1" parent="vwX1RIcoZE9_m3LfSMPV-2" source="vwX1RIcoZE9_m3LfSMPV-5" target="vwX1RIcoZE9_m3LfSMPV-7">
          <mxGeometry width="50" height="50" relative="1" as="geometry">
            <mxPoint x="60" y="230" as="sourcePoint" />
            <mxPoint x="110" y="180" as="targetPoint" />
          </mxGeometry>
        </mxCell>
        <mxCell id="vwX1RIcoZE9_m3LfSMPV-11" value="N" style="text;html=1;align=center;verticalAlign=middle;whiteSpace=wrap;rounded=0;" vertex="1" parent="vwX1RIcoZE9_m3LfSMPV-2">
          <mxGeometry x="70" y="245" width="60" height="30" as="geometry" />
        </mxCell>
      </root>
    </mxGraphModel>
  </diagram>
  <diagram id="qp71IEtuV7dOWCIeLycP" name="Circle">
    <mxGraphModel dx="1246" dy="1110" grid="1" gridSize="10" guides="1" tooltips="1" connect="1" arrows="1" fold="1" page="1" pageScale="1" pageWidth="827" pageHeight="1169" math="0" shadow="0">
      <root>
        <mxCell id="0" />
        <mxCell id="1" parent="0" />
        <mxCell id="eDA6vZ4EpaYgSjlpKrrW-20" value="" style="group" vertex="1" connectable="0" parent="1">
          <mxGeometry x="30" y="40" width="320" height="250" as="geometry" />
        </mxCell>
        <mxCell id="eDA6vZ4EpaYgSjlpKrrW-21" style="edgeStyle=orthogonalEdgeStyle;rounded=0;orthogonalLoop=1;jettySize=auto;html=1;exitX=1;exitY=0.5;exitDx=0;exitDy=0;entryX=0.5;entryY=0;entryDx=0;entryDy=0;" edge="1" parent="eDA6vZ4EpaYgSjlpKrrW-20" source="eDA6vZ4EpaYgSjlpKrrW-22" target="eDA6vZ4EpaYgSjlpKrrW-26">
          <mxGeometry relative="1" as="geometry" />
        </mxCell>
        <mxCell id="eDA6vZ4EpaYgSjlpKrrW-22" value="&lt;font face=&quot;Helvetica&quot;&gt;&lt;b&gt;&lt;font style=&quot;font-size: 24px;&quot;&gt;0&lt;/font&gt;&lt;/b&gt;&lt;/font&gt;" style="ellipse;whiteSpace=wrap;html=1;fillColor=#e1d5e7;strokeColor=#9673a6;" vertex="1" parent="eDA6vZ4EpaYgSjlpKrrW-20">
          <mxGeometry x="120" width="80" height="80" as="geometry" />
        </mxCell>
        <mxCell id="eDA6vZ4EpaYgSjlpKrrW-23" style="edgeStyle=orthogonalEdgeStyle;rounded=0;orthogonalLoop=1;jettySize=auto;html=1;exitX=0.5;exitY=0;exitDx=0;exitDy=0;entryX=0;entryY=0.5;entryDx=0;entryDy=0;" edge="1" parent="eDA6vZ4EpaYgSjlpKrrW-20" source="eDA6vZ4EpaYgSjlpKrrW-24" target="eDA6vZ4EpaYgSjlpKrrW-22">
          <mxGeometry relative="1" as="geometry" />
        </mxCell>
        <mxCell id="eDA6vZ4EpaYgSjlpKrrW-24" value="&lt;font face=&quot;Helvetica&quot;&gt;&lt;b&gt;&lt;font style=&quot;font-size: 24px;&quot;&gt;1&lt;/font&gt;&lt;/b&gt;&lt;/font&gt;" style="ellipse;whiteSpace=wrap;html=1;fillColor=#e1d5e7;strokeColor=#9673a6;" vertex="1" parent="eDA6vZ4EpaYgSjlpKrrW-20">
          <mxGeometry y="110" width="80" height="80" as="geometry" />
        </mxCell>
        <mxCell id="eDA6vZ4EpaYgSjlpKrrW-25" style="edgeStyle=orthogonalEdgeStyle;rounded=0;orthogonalLoop=1;jettySize=auto;html=1;exitX=0;exitY=0.5;exitDx=0;exitDy=0;entryX=1;entryY=0.5;entryDx=0;entryDy=0;dashed=1;" edge="1" parent="eDA6vZ4EpaYgSjlpKrrW-20" source="eDA6vZ4EpaYgSjlpKrrW-26" target="eDA6vZ4EpaYgSjlpKrrW-28">
          <mxGeometry relative="1" as="geometry" />
        </mxCell>
        <mxCell id="eDA6vZ4EpaYgSjlpKrrW-26" value="&lt;font face=&quot;Helvetica&quot;&gt;&lt;b&gt;&lt;font style=&quot;font-size: 24px;&quot;&gt;N&lt;/font&gt;&lt;/b&gt;&lt;/font&gt;" style="ellipse;whiteSpace=wrap;html=1;fillColor=#e1d5e7;strokeColor=#9673a6;" vertex="1" parent="eDA6vZ4EpaYgSjlpKrrW-20">
          <mxGeometry x="240" y="110" width="80" height="80" as="geometry" />
        </mxCell>
        <mxCell id="eDA6vZ4EpaYgSjlpKrrW-27" style="edgeStyle=orthogonalEdgeStyle;rounded=0;orthogonalLoop=1;jettySize=auto;html=1;exitX=0;exitY=0.5;exitDx=0;exitDy=0;entryX=1;entryY=0.5;entryDx=0;entryDy=0;dashed=1;" edge="1" parent="eDA6vZ4EpaYgSjlpKrrW-20" source="eDA6vZ4EpaYgSjlpKrrW-28" target="eDA6vZ4EpaYgSjlpKrrW-24">
          <mxGeometry relative="1" as="geometry" />
        </mxCell>
        <mxCell id="eDA6vZ4EpaYgSjlpKrrW-28" value="&lt;font style=&quot;font-size: 23px;&quot; face=&quot;Helvetica&quot;&gt;&lt;b&gt;&lt;font&gt;1 .. N-1&lt;/font&gt;&lt;/b&gt;&lt;/font&gt;" style="ellipse;whiteSpace=wrap;html=1;fillColor=#e1d5e7;strokeColor=#9673a6;" vertex="1" parent="eDA6vZ4EpaYgSjlpKrrW-20">
          <mxGeometry x="119" y="110" width="80" height="80" as="geometry" />
        </mxCell>
        <mxCell id="eDA6vZ4EpaYgSjlpKrrW-29" value="" style="shape=curlyBracket;whiteSpace=wrap;html=1;rounded=1;flipH=1;labelPosition=right;verticalLabelPosition=middle;align=left;verticalAlign=middle;rotation=90;" vertex="1" parent="eDA6vZ4EpaYgSjlpKrrW-20">
          <mxGeometry x="150" y="50" width="20" height="315" as="geometry" />
        </mxCell>
        <mxCell id="eDA6vZ4EpaYgSjlpKrrW-30" value="N" style="text;html=1;align=center;verticalAlign=middle;whiteSpace=wrap;rounded=0;" vertex="1" parent="eDA6vZ4EpaYgSjlpKrrW-20">
          <mxGeometry x="130" y="220" width="60" height="30" as="geometry" />
        </mxCell>
      </root>
    </mxGraphModel>
  </diagram>
  <diagram name="Circle - no text" id="FvMCTxGGBFjoYBCgrNqb">
    <mxGraphModel dx="1246" dy="1110" grid="1" gridSize="10" guides="1" tooltips="1" connect="1" arrows="1" fold="1" page="1" pageScale="1" pageWidth="827" pageHeight="1169" math="0" shadow="0">
      <root>
        <mxCell id="uBUeLHdp2zCFjUE7ecFx-0" />
        <mxCell id="uBUeLHdp2zCFjUE7ecFx-1" parent="uBUeLHdp2zCFjUE7ecFx-0" />
        <mxCell id="uBUeLHdp2zCFjUE7ecFx-2" value="" style="group" vertex="1" connectable="0" parent="uBUeLHdp2zCFjUE7ecFx-1">
          <mxGeometry x="30" y="40" width="320" height="250" as="geometry" />
        </mxCell>
        <mxCell id="uBUeLHdp2zCFjUE7ecFx-3" style="edgeStyle=orthogonalEdgeStyle;rounded=0;orthogonalLoop=1;jettySize=auto;html=1;exitX=1;exitY=0.5;exitDx=0;exitDy=0;entryX=0.5;entryY=0;entryDx=0;entryDy=0;" edge="1" parent="uBUeLHdp2zCFjUE7ecFx-2" source="uBUeLHdp2zCFjUE7ecFx-4" target="uBUeLHdp2zCFjUE7ecFx-8">
          <mxGeometry relative="1" as="geometry" />
        </mxCell>
        <mxCell id="uBUeLHdp2zCFjUE7ecFx-4" value="" style="ellipse;whiteSpace=wrap;html=1;fillColor=#e1d5e7;strokeColor=#9673a6;" vertex="1" parent="uBUeLHdp2zCFjUE7ecFx-2">
          <mxGeometry x="120" width="80" height="80" as="geometry" />
        </mxCell>
        <mxCell id="uBUeLHdp2zCFjUE7ecFx-5" style="edgeStyle=orthogonalEdgeStyle;rounded=0;orthogonalLoop=1;jettySize=auto;html=1;exitX=0.5;exitY=0;exitDx=0;exitDy=0;entryX=0;entryY=0.5;entryDx=0;entryDy=0;" edge="1" parent="uBUeLHdp2zCFjUE7ecFx-2" source="uBUeLHdp2zCFjUE7ecFx-6" target="uBUeLHdp2zCFjUE7ecFx-4">
          <mxGeometry relative="1" as="geometry" />
        </mxCell>
        <mxCell id="uBUeLHdp2zCFjUE7ecFx-6" value="" style="ellipse;whiteSpace=wrap;html=1;fillColor=#e1d5e7;strokeColor=#9673a6;" vertex="1" parent="uBUeLHdp2zCFjUE7ecFx-2">
          <mxGeometry y="110" width="80" height="80" as="geometry" />
        </mxCell>
        <mxCell id="uBUeLHdp2zCFjUE7ecFx-7" style="edgeStyle=orthogonalEdgeStyle;rounded=0;orthogonalLoop=1;jettySize=auto;html=1;exitX=0;exitY=0.5;exitDx=0;exitDy=0;entryX=1;entryY=0.5;entryDx=0;entryDy=0;dashed=1;" edge="1" parent="uBUeLHdp2zCFjUE7ecFx-2" source="uBUeLHdp2zCFjUE7ecFx-8" target="uBUeLHdp2zCFjUE7ecFx-10">
          <mxGeometry relative="1" as="geometry" />
        </mxCell>
        <mxCell id="uBUeLHdp2zCFjUE7ecFx-8" value="" style="ellipse;whiteSpace=wrap;html=1;fillColor=#e1d5e7;strokeColor=#9673a6;" vertex="1" parent="uBUeLHdp2zCFjUE7ecFx-2">
          <mxGeometry x="240" y="110" width="80" height="80" as="geometry" />
        </mxCell>
        <mxCell id="uBUeLHdp2zCFjUE7ecFx-9" style="edgeStyle=orthogonalEdgeStyle;rounded=0;orthogonalLoop=1;jettySize=auto;html=1;exitX=0;exitY=0.5;exitDx=0;exitDy=0;entryX=1;entryY=0.5;entryDx=0;entryDy=0;dashed=1;" edge="1" parent="uBUeLHdp2zCFjUE7ecFx-2" source="uBUeLHdp2zCFjUE7ecFx-10" target="uBUeLHdp2zCFjUE7ecFx-6">
          <mxGeometry relative="1" as="geometry" />
        </mxCell>
        <mxCell id="uBUeLHdp2zCFjUE7ecFx-10" value="" style="ellipse;whiteSpace=wrap;html=1;fillColor=#e1d5e7;strokeColor=#9673a6;" vertex="1" parent="uBUeLHdp2zCFjUE7ecFx-2">
          <mxGeometry x="119" y="110" width="80" height="80" as="geometry" />
        </mxCell>
        <mxCell id="uBUeLHdp2zCFjUE7ecFx-11" value="" style="shape=curlyBracket;whiteSpace=wrap;html=1;rounded=1;flipH=1;labelPosition=right;verticalLabelPosition=middle;align=left;verticalAlign=middle;rotation=90;" vertex="1" parent="uBUeLHdp2zCFjUE7ecFx-2">
          <mxGeometry x="150" y="50" width="20" height="315" as="geometry" />
        </mxCell>
        <mxCell id="uBUeLHdp2zCFjUE7ecFx-12" value="N" style="text;html=1;align=center;verticalAlign=middle;whiteSpace=wrap;rounded=0;" vertex="1" parent="uBUeLHdp2zCFjUE7ecFx-2">
          <mxGeometry x="130" y="220" width="60" height="30" as="geometry" />
        </mxCell>
      </root>
    </mxGraphModel>
  </diagram>
  <diagram id="uU4jDiZkKRi0VgXdia-1" name="Diamond">
    <mxGraphModel dx="1246" dy="1110" grid="1" gridSize="10" guides="1" tooltips="1" connect="1" arrows="1" fold="1" page="1" pageScale="1" pageWidth="827" pageHeight="1169" math="0" shadow="0">
      <root>
        <mxCell id="0" />
        <mxCell id="1" parent="0" />
        <mxCell id="hg6ZlKpJrt71b59x-n9f-1" value="" style="group" vertex="1" connectable="0" parent="1">
          <mxGeometry x="30" y="20" width="280" height="477.5" as="geometry" />
        </mxCell>
        <mxCell id="hg6ZlKpJrt71b59x-n9f-2" value="&lt;font face=&quot;Helvetica&quot;&gt;&lt;b&gt;&lt;font style=&quot;font-size: 24px;&quot;&gt;0&lt;/font&gt;&lt;/b&gt;&lt;/font&gt;" style="ellipse;whiteSpace=wrap;html=1;fillColor=#f8cecc;strokeColor=#b85450;" vertex="1" parent="hg6ZlKpJrt71b59x-n9f-1">
          <mxGeometry x="60" width="80" height="80" as="geometry" />
        </mxCell>
        <mxCell id="hg6ZlKpJrt71b59x-n9f-3" style="edgeStyle=orthogonalEdgeStyle;rounded=0;orthogonalLoop=1;jettySize=auto;html=1;exitX=0.5;exitY=0;exitDx=0;exitDy=0;entryX=0.5;entryY=1;entryDx=0;entryDy=0;" edge="1" parent="hg6ZlKpJrt71b59x-n9f-1" source="hg6ZlKpJrt71b59x-n9f-4" target="hg6ZlKpJrt71b59x-n9f-2">
          <mxGeometry relative="1" as="geometry" />
        </mxCell>
        <mxCell id="hg6ZlKpJrt71b59x-n9f-4" value="&lt;font style=&quot;font-size: 20px;&quot; face=&quot;Helvetica&quot;&gt;&lt;b&gt;&lt;font&gt;1 .. N - 1&lt;/font&gt;&lt;/b&gt;&lt;/font&gt;" style="ellipse;whiteSpace=wrap;html=1;fillColor=#f8cecc;strokeColor=#b85450;" vertex="1" parent="hg6ZlKpJrt71b59x-n9f-1">
          <mxGeometry y="117.5" width="80" height="80" as="geometry" />
        </mxCell>
        <mxCell id="hg6ZlKpJrt71b59x-n9f-5" style="edgeStyle=orthogonalEdgeStyle;rounded=0;orthogonalLoop=1;jettySize=auto;html=1;exitX=0.5;exitY=0;exitDx=0;exitDy=0;entryX=0.5;entryY=1;entryDx=0;entryDy=0;" edge="1" parent="hg6ZlKpJrt71b59x-n9f-1" source="hg6ZlKpJrt71b59x-n9f-6" target="hg6ZlKpJrt71b59x-n9f-2">
          <mxGeometry relative="1" as="geometry" />
        </mxCell>
        <mxCell id="hg6ZlKpJrt71b59x-n9f-6" value="&lt;font style=&quot;font-size: 14px;&quot; face=&quot;Helvetica&quot;&gt;&lt;b&gt;&lt;font&gt;N .. N * M -1&lt;/font&gt;&lt;/b&gt;&lt;/font&gt;" style="ellipse;whiteSpace=wrap;html=1;fillColor=#f8cecc;strokeColor=#b85450;" vertex="1" parent="hg6ZlKpJrt71b59x-n9f-1">
          <mxGeometry x="120" y="117.5" width="80" height="80" as="geometry" />
        </mxCell>
        <mxCell id="hg6ZlKpJrt71b59x-n9f-7" value="N" style="text;html=1;align=center;verticalAlign=middle;whiteSpace=wrap;rounded=0;" vertex="1" parent="hg6ZlKpJrt71b59x-n9f-1">
          <mxGeometry x="70" y="127.5" width="60" height="30" as="geometry" />
        </mxCell>
        <mxCell id="hg6ZlKpJrt71b59x-n9f-8" value="" style="endArrow=none;dashed=1;html=1;dashPattern=1 3;strokeWidth=2;rounded=0;entryX=0;entryY=0.5;entryDx=0;entryDy=0;exitX=1.029;exitY=0.503;exitDx=0;exitDy=0;exitPerimeter=0;" edge="1" parent="hg6ZlKpJrt71b59x-n9f-1" source="hg6ZlKpJrt71b59x-n9f-4" target="hg6ZlKpJrt71b59x-n9f-6">
          <mxGeometry width="50" height="50" relative="1" as="geometry">
            <mxPoint x="60" y="217.5" as="sourcePoint" />
            <mxPoint x="110" y="167.5" as="targetPoint" />
          </mxGeometry>
        </mxCell>
        <mxCell id="hg6ZlKpJrt71b59x-n9f-9" style="edgeStyle=orthogonalEdgeStyle;rounded=0;orthogonalLoop=1;jettySize=auto;html=1;exitX=0.5;exitY=0;exitDx=0;exitDy=0;entryX=0.5;entryY=1;entryDx=0;entryDy=0;dashed=1;" edge="1" parent="hg6ZlKpJrt71b59x-n9f-1" source="hg6ZlKpJrt71b59x-n9f-10" target="hg6ZlKpJrt71b59x-n9f-6">
          <mxGeometry relative="1" as="geometry" />
        </mxCell>
        <mxCell id="hg6ZlKpJrt71b59x-n9f-10" value="&lt;font style=&quot;font-size: 23px;&quot;&gt;&lt;b&gt;N*M - 1&lt;/b&gt;&lt;/font&gt;" style="ellipse;whiteSpace=wrap;html=1;fillColor=#f8cecc;strokeColor=#b85450;" vertex="1" parent="hg6ZlKpJrt71b59x-n9f-1">
          <mxGeometry x="120" y="227.5" width="80" height="80" as="geometry" />
        </mxCell>
        <mxCell id="hg6ZlKpJrt71b59x-n9f-11" value="M" style="text;html=1;align=center;verticalAlign=middle;whiteSpace=wrap;rounded=0;" vertex="1" parent="hg6ZlKpJrt71b59x-n9f-1">
          <mxGeometry x="220" y="197.5" width="60" height="30" as="geometry" />
        </mxCell>
        <mxCell id="hg6ZlKpJrt71b59x-n9f-12" style="edgeStyle=orthogonalEdgeStyle;rounded=0;orthogonalLoop=1;jettySize=auto;html=1;exitX=0.5;exitY=0;exitDx=0;exitDy=0;entryX=0.5;entryY=1;entryDx=0;entryDy=0;dashed=1;" edge="1" parent="hg6ZlKpJrt71b59x-n9f-1" source="hg6ZlKpJrt71b59x-n9f-13" target="hg6ZlKpJrt71b59x-n9f-4">
          <mxGeometry relative="1" as="geometry" />
        </mxCell>
        <mxCell id="hg6ZlKpJrt71b59x-n9f-13" value="&lt;font face=&quot;Helvetica&quot;&gt;&lt;b&gt;&lt;font style=&quot;font-size: 24px;&quot;&gt;N&lt;/font&gt;&lt;/b&gt;&lt;/font&gt;" style="ellipse;whiteSpace=wrap;html=1;fillColor=#f8cecc;strokeColor=#b85450;" vertex="1" parent="hg6ZlKpJrt71b59x-n9f-1">
          <mxGeometry y="227.5" width="80" height="80" as="geometry" />
        </mxCell>
        <mxCell id="hg6ZlKpJrt71b59x-n9f-14" style="edgeStyle=orthogonalEdgeStyle;rounded=0;orthogonalLoop=1;jettySize=auto;html=1;exitX=0.5;exitY=0;exitDx=0;exitDy=0;entryX=0.5;entryY=1;entryDx=0;entryDy=0;" edge="1" parent="hg6ZlKpJrt71b59x-n9f-1" source="hg6ZlKpJrt71b59x-n9f-16" target="hg6ZlKpJrt71b59x-n9f-13">
          <mxGeometry relative="1" as="geometry" />
        </mxCell>
        <mxCell id="hg6ZlKpJrt71b59x-n9f-15" style="edgeStyle=orthogonalEdgeStyle;rounded=0;orthogonalLoop=1;jettySize=auto;html=1;exitX=0.5;exitY=0;exitDx=0;exitDy=0;entryX=0.5;entryY=1;entryDx=0;entryDy=0;" edge="1" parent="hg6ZlKpJrt71b59x-n9f-1" source="hg6ZlKpJrt71b59x-n9f-16" target="hg6ZlKpJrt71b59x-n9f-10">
          <mxGeometry relative="1" as="geometry" />
        </mxCell>
        <mxCell id="hg6ZlKpJrt71b59x-n9f-16" value="&lt;font face=&quot;Helvetica&quot;&gt;&lt;b&gt;&lt;font style=&quot;font-size: 24px;&quot;&gt;N*M&lt;/font&gt;&lt;/b&gt;&lt;/font&gt;" style="ellipse;whiteSpace=wrap;html=1;fillColor=#f8cecc;strokeColor=#b85450;" vertex="1" parent="hg6ZlKpJrt71b59x-n9f-1">
          <mxGeometry x="60" y="347.5" width="80" height="80" as="geometry" />
        </mxCell>
        <mxCell id="hg6ZlKpJrt71b59x-n9f-17" value="" style="shape=curlyBracket;whiteSpace=wrap;html=1;rounded=1;flipH=1;labelPosition=right;verticalLabelPosition=middle;align=left;verticalAlign=middle;" vertex="1" parent="hg6ZlKpJrt71b59x-n9f-1">
          <mxGeometry x="220" y="127.5" width="20" height="170" as="geometry" />
        </mxCell>
        <mxCell id="hg6ZlKpJrt71b59x-n9f-18" value="" style="shape=curlyBracket;whiteSpace=wrap;html=1;rounded=1;flipH=1;labelPosition=right;verticalLabelPosition=middle;align=left;verticalAlign=middle;rotation=90;" vertex="1" parent="hg6ZlKpJrt71b59x-n9f-1">
          <mxGeometry x="92.5" y="360" width="20" height="170" as="geometry" />
        </mxCell>
        <mxCell id="hg6ZlKpJrt71b59x-n9f-19" value="N" style="text;html=1;align=center;verticalAlign=middle;whiteSpace=wrap;rounded=0;" vertex="1" parent="hg6ZlKpJrt71b59x-n9f-1">
          <mxGeometry x="72.5" y="447.5" width="60" height="30" as="geometry" />
        </mxCell>
      </root>
    </mxGraphModel>
  </diagram>
  <diagram name="Diamond - no text" id="icmSntlLlT721tjOx1IY">
    <mxGraphModel dx="1246" dy="1110" grid="1" gridSize="10" guides="1" tooltips="1" connect="1" arrows="1" fold="1" page="1" pageScale="1" pageWidth="827" pageHeight="1169" math="0" shadow="0">
      <root>
        <mxCell id="xJ4XPM0szPQj0omRdIIq-0" />
        <mxCell id="xJ4XPM0szPQj0omRdIIq-1" parent="xJ4XPM0szPQj0omRdIIq-0" />
        <mxCell id="xJ4XPM0szPQj0omRdIIq-2" value="" style="group" vertex="1" connectable="0" parent="xJ4XPM0szPQj0omRdIIq-1">
          <mxGeometry x="30" y="20" width="280" height="477.5" as="geometry" />
        </mxCell>
        <mxCell id="xJ4XPM0szPQj0omRdIIq-3" value="" style="ellipse;whiteSpace=wrap;html=1;fillColor=#f8cecc;strokeColor=#b85450;" vertex="1" parent="xJ4XPM0szPQj0omRdIIq-2">
          <mxGeometry x="60" width="80" height="80" as="geometry" />
        </mxCell>
        <mxCell id="xJ4XPM0szPQj0omRdIIq-4" style="edgeStyle=orthogonalEdgeStyle;rounded=0;orthogonalLoop=1;jettySize=auto;html=1;exitX=0.5;exitY=0;exitDx=0;exitDy=0;entryX=0.5;entryY=1;entryDx=0;entryDy=0;" edge="1" parent="xJ4XPM0szPQj0omRdIIq-2" source="xJ4XPM0szPQj0omRdIIq-5" target="xJ4XPM0szPQj0omRdIIq-3">
          <mxGeometry relative="1" as="geometry" />
        </mxCell>
        <mxCell id="xJ4XPM0szPQj0omRdIIq-5" value="" style="ellipse;whiteSpace=wrap;html=1;fillColor=#f8cecc;strokeColor=#b85450;" vertex="1" parent="xJ4XPM0szPQj0omRdIIq-2">
          <mxGeometry y="117.5" width="80" height="80" as="geometry" />
        </mxCell>
        <mxCell id="xJ4XPM0szPQj0omRdIIq-6" style="edgeStyle=orthogonalEdgeStyle;rounded=0;orthogonalLoop=1;jettySize=auto;html=1;exitX=0.5;exitY=0;exitDx=0;exitDy=0;entryX=0.5;entryY=1;entryDx=0;entryDy=0;" edge="1" parent="xJ4XPM0szPQj0omRdIIq-2" source="xJ4XPM0szPQj0omRdIIq-7" target="xJ4XPM0szPQj0omRdIIq-3">
          <mxGeometry relative="1" as="geometry" />
        </mxCell>
        <mxCell id="xJ4XPM0szPQj0omRdIIq-7" value="" style="ellipse;whiteSpace=wrap;html=1;fillColor=#f8cecc;strokeColor=#b85450;" vertex="1" parent="xJ4XPM0szPQj0omRdIIq-2">
          <mxGeometry x="120" y="117.5" width="80" height="80" as="geometry" />
        </mxCell>
        <mxCell id="xJ4XPM0szPQj0omRdIIq-8" value="N" style="text;html=1;align=center;verticalAlign=middle;whiteSpace=wrap;rounded=0;" vertex="1" parent="xJ4XPM0szPQj0omRdIIq-2">
          <mxGeometry x="70" y="127.5" width="60" height="30" as="geometry" />
        </mxCell>
        <mxCell id="xJ4XPM0szPQj0omRdIIq-9" value="" style="endArrow=none;dashed=1;html=1;dashPattern=1 3;strokeWidth=2;rounded=0;entryX=0;entryY=0.5;entryDx=0;entryDy=0;exitX=1.029;exitY=0.503;exitDx=0;exitDy=0;exitPerimeter=0;" edge="1" parent="xJ4XPM0szPQj0omRdIIq-2" source="xJ4XPM0szPQj0omRdIIq-5" target="xJ4XPM0szPQj0omRdIIq-7">
          <mxGeometry width="50" height="50" relative="1" as="geometry">
            <mxPoint x="60" y="217.5" as="sourcePoint" />
            <mxPoint x="110" y="167.5" as="targetPoint" />
          </mxGeometry>
        </mxCell>
        <mxCell id="xJ4XPM0szPQj0omRdIIq-10" style="edgeStyle=orthogonalEdgeStyle;rounded=0;orthogonalLoop=1;jettySize=auto;html=1;exitX=0.5;exitY=0;exitDx=0;exitDy=0;entryX=0.5;entryY=1;entryDx=0;entryDy=0;dashed=1;" edge="1" parent="xJ4XPM0szPQj0omRdIIq-2" source="xJ4XPM0szPQj0omRdIIq-11" target="xJ4XPM0szPQj0omRdIIq-7">
          <mxGeometry relative="1" as="geometry" />
        </mxCell>
        <mxCell id="xJ4XPM0szPQj0omRdIIq-11" value="" style="ellipse;whiteSpace=wrap;html=1;fillColor=#f8cecc;strokeColor=#b85450;" vertex="1" parent="xJ4XPM0szPQj0omRdIIq-2">
          <mxGeometry x="120" y="227.5" width="80" height="80" as="geometry" />
        </mxCell>
        <mxCell id="xJ4XPM0szPQj0omRdIIq-12" value="M" style="text;html=1;align=center;verticalAlign=middle;whiteSpace=wrap;rounded=0;" vertex="1" parent="xJ4XPM0szPQj0omRdIIq-2">
          <mxGeometry x="220" y="197.5" width="60" height="30" as="geometry" />
        </mxCell>
        <mxCell id="xJ4XPM0szPQj0omRdIIq-13" style="edgeStyle=orthogonalEdgeStyle;rounded=0;orthogonalLoop=1;jettySize=auto;html=1;exitX=0.5;exitY=0;exitDx=0;exitDy=0;entryX=0.5;entryY=1;entryDx=0;entryDy=0;dashed=1;" edge="1" parent="xJ4XPM0szPQj0omRdIIq-2" source="xJ4XPM0szPQj0omRdIIq-14" target="xJ4XPM0szPQj0omRdIIq-5">
          <mxGeometry relative="1" as="geometry" />
        </mxCell>
        <mxCell id="xJ4XPM0szPQj0omRdIIq-14" value="" style="ellipse;whiteSpace=wrap;html=1;fillColor=#f8cecc;strokeColor=#b85450;" vertex="1" parent="xJ4XPM0szPQj0omRdIIq-2">
          <mxGeometry y="227.5" width="80" height="80" as="geometry" />
        </mxCell>
        <mxCell id="xJ4XPM0szPQj0omRdIIq-15" style="edgeStyle=orthogonalEdgeStyle;rounded=0;orthogonalLoop=1;jettySize=auto;html=1;exitX=0.5;exitY=0;exitDx=0;exitDy=0;entryX=0.5;entryY=1;entryDx=0;entryDy=0;" edge="1" parent="xJ4XPM0szPQj0omRdIIq-2" source="xJ4XPM0szPQj0omRdIIq-17" target="xJ4XPM0szPQj0omRdIIq-14">
          <mxGeometry relative="1" as="geometry" />
        </mxCell>
        <mxCell id="xJ4XPM0szPQj0omRdIIq-16" style="edgeStyle=orthogonalEdgeStyle;rounded=0;orthogonalLoop=1;jettySize=auto;html=1;exitX=0.5;exitY=0;exitDx=0;exitDy=0;entryX=0.5;entryY=1;entryDx=0;entryDy=0;" edge="1" parent="xJ4XPM0szPQj0omRdIIq-2" source="xJ4XPM0szPQj0omRdIIq-17" target="xJ4XPM0szPQj0omRdIIq-11">
          <mxGeometry relative="1" as="geometry" />
        </mxCell>
        <mxCell id="xJ4XPM0szPQj0omRdIIq-17" value="" style="ellipse;whiteSpace=wrap;html=1;fillColor=#f8cecc;strokeColor=#b85450;" vertex="1" parent="xJ4XPM0szPQj0omRdIIq-2">
          <mxGeometry x="60" y="347.5" width="80" height="80" as="geometry" />
        </mxCell>
        <mxCell id="xJ4XPM0szPQj0omRdIIq-18" value="" style="shape=curlyBracket;whiteSpace=wrap;html=1;rounded=1;flipH=1;labelPosition=right;verticalLabelPosition=middle;align=left;verticalAlign=middle;" vertex="1" parent="xJ4XPM0szPQj0omRdIIq-2">
          <mxGeometry x="220" y="127.5" width="20" height="170" as="geometry" />
        </mxCell>
        <mxCell id="xJ4XPM0szPQj0omRdIIq-19" value="" style="shape=curlyBracket;whiteSpace=wrap;html=1;rounded=1;flipH=1;labelPosition=right;verticalLabelPosition=middle;align=left;verticalAlign=middle;rotation=90;" vertex="1" parent="xJ4XPM0szPQj0omRdIIq-2">
          <mxGeometry x="92.5" y="360" width="20" height="170" as="geometry" />
        </mxCell>
        <mxCell id="xJ4XPM0szPQj0omRdIIq-20" value="N" style="text;html=1;align=center;verticalAlign=middle;whiteSpace=wrap;rounded=0;" vertex="1" parent="xJ4XPM0szPQj0omRdIIq-2">
          <mxGeometry x="72.5" y="447.5" width="60" height="30" as="geometry" />
        </mxCell>
      </root>
    </mxGraphModel>
  </diagram>
  <diagram id="TMNsFaQH-2Z_ltuVElo8" name="Head-lin">
    <mxGraphModel dx="859" dy="766" grid="1" gridSize="10" guides="1" tooltips="1" connect="1" arrows="1" fold="1" page="1" pageScale="1" pageWidth="827" pageHeight="1169" math="1" shadow="0">
      <root>
        <mxCell id="0" />
        <mxCell id="1" parent="0" />
        <mxCell id="HOmIZWRiTxnhHGaTaDx2-9" value="" style="rounded=0;whiteSpace=wrap;html=1;dashed=1;dashPattern=8 8;fillColor=none;" vertex="1" parent="1">
          <mxGeometry x="50" y="210" width="170" height="80" as="geometry" />
        </mxCell>
        <mxCell id="Ps5_wg_sL2cjSXHl0wJJ-1" value="" style="group;fontStyle=2" vertex="1" connectable="0" parent="1">
          <mxGeometry x="230" y="100" width="120" height="300" as="geometry" />
        </mxCell>
        <mxCell id="AJTocWYaYQTWYG84BKrk-2" style="edgeStyle=orthogonalEdgeStyle;rounded=0;orthogonalLoop=1;jettySize=auto;html=1;exitX=0.5;exitY=0;exitDx=0;exitDy=0;dashed=1;" edge="1" parent="Ps5_wg_sL2cjSXHl0wJJ-1" source="Ps5_wg_sL2cjSXHl0wJJ-2">
          <mxGeometry relative="1" as="geometry">
            <mxPoint x="39.857142857142776" y="-30" as="targetPoint" />
          </mxGeometry>
        </mxCell>
        <mxCell id="Ps5_wg_sL2cjSXHl0wJJ-2" value="" style="ellipse;whiteSpace=wrap;html=1;fillColor=#f5f5f5;strokeColor=#666666;fontColor=#333333;" vertex="1" parent="Ps5_wg_sL2cjSXHl0wJJ-1">
          <mxGeometry width="80" height="80" as="geometry" />
        </mxCell>
        <mxCell id="Ps5_wg_sL2cjSXHl0wJJ-3" style="edgeStyle=orthogonalEdgeStyle;rounded=0;orthogonalLoop=1;jettySize=auto;html=1;exitX=0.5;exitY=0;exitDx=0;exitDy=0;entryX=0.5;entryY=1;entryDx=0;entryDy=0;" edge="1" parent="Ps5_wg_sL2cjSXHl0wJJ-1">
          <mxGeometry relative="1" as="geometry">
            <mxPoint x="39.96" y="109.99999999999994" as="sourcePoint" />
            <mxPoint x="39.96" y="80" as="targetPoint" />
          </mxGeometry>
        </mxCell>
        <mxCell id="HOmIZWRiTxnhHGaTaDx2-4" value="Parent" style="edgeLabel;html=1;align=center;verticalAlign=middle;resizable=0;points=[];fontStyle=2" vertex="1" connectable="0" parent="Ps5_wg_sL2cjSXHl0wJJ-3">
          <mxGeometry x="-0.3324" y="-1" relative="1" as="geometry">
            <mxPoint x="19" as="offset" />
          </mxGeometry>
        </mxCell>
        <mxCell id="Ps5_wg_sL2cjSXHl0wJJ-4" style="edgeStyle=orthogonalEdgeStyle;rounded=0;orthogonalLoop=1;jettySize=auto;html=1;exitX=0.5;exitY=0;exitDx=0;exitDy=0;entryX=0.5;entryY=1;entryDx=0;entryDy=0;" edge="1" parent="Ps5_wg_sL2cjSXHl0wJJ-1" source="Ps5_wg_sL2cjSXHl0wJJ-5" target="Ps5_wg_sL2cjSXHl0wJJ-7">
          <mxGeometry relative="1" as="geometry">
            <mxPoint x="-230" y="-100" as="targetPoint" />
          </mxGeometry>
        </mxCell>
        <mxCell id="Ps5_wg_sL2cjSXHl0wJJ-5" value="" style="ellipse;whiteSpace=wrap;html=1;fillColor=#f5f5f5;strokeColor=#666666;fontColor=#333333;" vertex="1" parent="Ps5_wg_sL2cjSXHl0wJJ-1">
          <mxGeometry y="220" width="80" height="80" as="geometry" />
        </mxCell>
        <mxCell id="Ps5_wg_sL2cjSXHl0wJJ-6" value="N" style="shape=curlyBracket;whiteSpace=wrap;html=1;rounded=1;flipH=1;labelPosition=right;verticalLabelPosition=middle;align=left;verticalAlign=middle;" vertex="1" parent="Ps5_wg_sL2cjSXHl0wJJ-1">
          <mxGeometry x="100" y="20" width="20" height="260" as="geometry" />
        </mxCell>
        <mxCell id="Ps5_wg_sL2cjSXHl0wJJ-7" value="" style="ellipse;whiteSpace=wrap;html=1;fillColor=#f5f5f5;strokeColor=#666666;fontColor=#333333;" vertex="1" parent="Ps5_wg_sL2cjSXHl0wJJ-1">
          <mxGeometry y="110" width="80" height="80" as="geometry" />
        </mxCell>
        <mxCell id="HOmIZWRiTxnhHGaTaDx2-5" value="Parent" style="edgeLabel;html=1;align=center;verticalAlign=middle;resizable=0;points=[];fontStyle=2" vertex="1" connectable="0" parent="Ps5_wg_sL2cjSXHl0wJJ-1">
          <mxGeometry x="60" y="210" as="geometry" />
        </mxCell>
        <mxCell id="HOmIZWRiTxnhHGaTaDx2-6" value="&lt;div&gt;&lt;font style=&quot;font-size: 24px;&quot;&gt;`x_i |-- t`&lt;/font&gt;&lt;/div&gt;" style="rounded=0;whiteSpace=wrap;html=1;fillColor=#fff2cc;strokeColor=#d6b656;" vertex="1" parent="1">
          <mxGeometry x="60" y="220" width="120" height="60" as="geometry" />
        </mxCell>
        <mxCell id="HOmIZWRiTxnhHGaTaDx2-7" style="edgeStyle=orthogonalEdgeStyle;rounded=0;orthogonalLoop=1;jettySize=auto;html=1;exitX=0;exitY=0.5;exitDx=0;exitDy=0;entryX=1;entryY=0.5;entryDx=0;entryDy=0;" edge="1" parent="1" target="HOmIZWRiTxnhHGaTaDx2-6">
          <mxGeometry relative="1" as="geometry">
            <mxPoint x="230" y="250" as="sourcePoint" />
            <Array as="points">
              <mxPoint x="210" y="250" />
              <mxPoint x="210" y="250" />
            </Array>
          </mxGeometry>
        </mxCell>
        <mxCell id="HOmIZWRiTxnhHGaTaDx2-8" value="Decl" style="edgeLabel;html=1;align=center;verticalAlign=middle;resizable=0;points=[];fontStyle=2" vertex="1" connectable="0" parent="HOmIZWRiTxnhHGaTaDx2-7">
          <mxGeometry x="0.0659" y="-1" relative="1" as="geometry">
            <mxPoint y="-9" as="offset" />
          </mxGeometry>
        </mxCell>
        <mxCell id="HOmIZWRiTxnhHGaTaDx2-15" value="" style="rounded=0;whiteSpace=wrap;html=1;dashed=1;dashPattern=8 8;fillColor=none;" vertex="1" parent="1">
          <mxGeometry x="50" y="100" width="170" height="80" as="geometry" />
        </mxCell>
        <mxCell id="HOmIZWRiTxnhHGaTaDx2-16" value="&lt;div&gt;&lt;font style=&quot;font-size: 24px;&quot;&gt;`x_i |-- t`&lt;/font&gt;&lt;/div&gt;" style="rounded=0;whiteSpace=wrap;html=1;fillColor=#fff2cc;strokeColor=#d6b656;" vertex="1" parent="1">
          <mxGeometry x="60" y="110" width="120" height="60" as="geometry" />
        </mxCell>
        <mxCell id="HOmIZWRiTxnhHGaTaDx2-17" style="edgeStyle=orthogonalEdgeStyle;rounded=0;orthogonalLoop=1;jettySize=auto;html=1;exitX=0;exitY=0.5;exitDx=0;exitDy=0;entryX=1;entryY=0.5;entryDx=0;entryDy=0;" edge="1" parent="1" target="HOmIZWRiTxnhHGaTaDx2-16">
          <mxGeometry relative="1" as="geometry">
            <mxPoint x="230" y="140" as="sourcePoint" />
            <Array as="points">
              <mxPoint x="210" y="140" />
              <mxPoint x="210" y="140" />
            </Array>
          </mxGeometry>
        </mxCell>
        <mxCell id="HOmIZWRiTxnhHGaTaDx2-18" value="Decl" style="edgeLabel;html=1;align=center;verticalAlign=middle;resizable=0;points=[];fontStyle=2" vertex="1" connectable="0" parent="HOmIZWRiTxnhHGaTaDx2-17">
          <mxGeometry x="0.0659" y="-1" relative="1" as="geometry">
            <mxPoint y="-9" as="offset" />
          </mxGeometry>
        </mxCell>
        <mxCell id="HOmIZWRiTxnhHGaTaDx2-19" value="`P(decl) = ...%`" style="text;html=1;align=center;verticalAlign=middle;whiteSpace=wrap;rounded=0;" vertex="1" parent="1">
          <mxGeometry x="93.75" y="70" width="82.5" height="30" as="geometry" />
        </mxCell>
        <mxCell id="HOmIZWRiTxnhHGaTaDx2-24" value="" style="rounded=0;whiteSpace=wrap;html=1;dashed=1;dashPattern=8 8;fillColor=none;" vertex="1" parent="1">
          <mxGeometry x="50" y="320" width="170" height="80" as="geometry" />
        </mxCell>
        <mxCell id="HOmIZWRiTxnhHGaTaDx2-25" value="&lt;div&gt;&lt;font style=&quot;font-size: 24px;&quot;&gt;`x_i |-- t`&lt;/font&gt;&lt;/div&gt;" style="rounded=0;whiteSpace=wrap;html=1;fillColor=#fff2cc;strokeColor=#d6b656;" vertex="1" parent="1">
          <mxGeometry x="60" y="330" width="120" height="60" as="geometry" />
        </mxCell>
        <mxCell id="HOmIZWRiTxnhHGaTaDx2-26" style="edgeStyle=orthogonalEdgeStyle;rounded=0;orthogonalLoop=1;jettySize=auto;html=1;exitX=0;exitY=0.5;exitDx=0;exitDy=0;entryX=1;entryY=0.5;entryDx=0;entryDy=0;" edge="1" parent="1" target="HOmIZWRiTxnhHGaTaDx2-25">
          <mxGeometry relative="1" as="geometry">
            <mxPoint x="230" y="360" as="sourcePoint" />
            <Array as="points">
              <mxPoint x="210" y="360" />
              <mxPoint x="210" y="360" />
            </Array>
          </mxGeometry>
        </mxCell>
        <mxCell id="HOmIZWRiTxnhHGaTaDx2-27" value="Decl" style="edgeLabel;html=1;align=center;verticalAlign=middle;resizable=0;points=[];fontStyle=2" vertex="1" connectable="0" parent="HOmIZWRiTxnhHGaTaDx2-26">
          <mxGeometry x="0.0659" y="-1" relative="1" as="geometry">
            <mxPoint y="-9" as="offset" />
          </mxGeometry>
        </mxCell>
        <mxCell id="AJTocWYaYQTWYG84BKrk-4" style="edgeStyle=orthogonalEdgeStyle;rounded=0;orthogonalLoop=1;jettySize=auto;html=1;exitX=0.5;exitY=0;exitDx=0;exitDy=0;entryX=0.5;entryY=1;entryDx=0;entryDy=0;dashed=1;" edge="1" parent="1" target="Ps5_wg_sL2cjSXHl0wJJ-5">
          <mxGeometry relative="1" as="geometry">
            <mxPoint x="270" y="430" as="sourcePoint" />
          </mxGeometry>
        </mxCell>
      </root>
    </mxGraphModel>
  </diagram>
  <diagram name="fanout-head" id="B5ZFwkMQEy4SnK-kKd34">
    <mxGraphModel dx="498" dy="444" grid="1" gridSize="10" guides="1" tooltips="1" connect="1" arrows="1" fold="1" page="1" pageScale="1" pageWidth="827" pageHeight="1169" math="1" shadow="0">
      <root>
        <mxCell id="dSL3fzfyohUc4hpSt6JH-0" />
        <mxCell id="dSL3fzfyohUc4hpSt6JH-1" parent="dSL3fzfyohUc4hpSt6JH-0" />
        <mxCell id="dSL3fzfyohUc4hpSt6JH-16" value="&lt;div&gt;&lt;font style=&quot;font-size: 24px;&quot;&gt;`x_i |-- t`&lt;/font&gt;&lt;/div&gt;" style="rounded=0;whiteSpace=wrap;html=1;fillColor=#fff2cc;strokeColor=#d6b656;" vertex="1" parent="dSL3fzfyohUc4hpSt6JH-1">
          <mxGeometry x="50" y="185" width="120" height="60" as="geometry" />
        </mxCell>
        <mxCell id="m8OK_smeokGkB11U6Oso-16" style="edgeStyle=orthogonalEdgeStyle;rounded=0;orthogonalLoop=1;jettySize=auto;html=1;exitX=0;exitY=0.5;exitDx=0;exitDy=0;entryX=1;entryY=0.5;entryDx=0;entryDy=0;curved=0;dashed=1;" edge="1" parent="dSL3fzfyohUc4hpSt6JH-1" source="m8OK_smeokGkB11U6Oso-0" target="dSL3fzfyohUc4hpSt6JH-16">
          <mxGeometry relative="1" as="geometry" />
        </mxCell>
        <mxCell id="m8OK_smeokGkB11U6Oso-25" value="" style="group" vertex="1" connectable="0" parent="dSL3fzfyohUc4hpSt6JH-1">
          <mxGeometry x="207.5" y="150" width="162.5" height="200" as="geometry" />
        </mxCell>
        <mxCell id="m8OK_smeokGkB11U6Oso-1" style="edgeStyle=orthogonalEdgeStyle;rounded=0;orthogonalLoop=1;jettySize=auto;html=1;exitX=0.5;exitY=0;exitDx=0;exitDy=0;" edge="1" parent="m8OK_smeokGkB11U6Oso-25" source="dSL3fzfyohUc4hpSt6JH-4" target="m8OK_smeokGkB11U6Oso-0">
          <mxGeometry relative="1" as="geometry" />
        </mxCell>
        <mxCell id="m8OK_smeokGkB11U6Oso-4" style="edgeStyle=orthogonalEdgeStyle;rounded=0;orthogonalLoop=1;jettySize=auto;html=1;exitX=0.5;exitY=0;exitDx=0;exitDy=0;entryX=0.5;entryY=1;entryDx=0;entryDy=0;" edge="1" parent="m8OK_smeokGkB11U6Oso-25" source="dSL3fzfyohUc4hpSt6JH-4" target="m8OK_smeokGkB11U6Oso-2">
          <mxGeometry relative="1" as="geometry" />
        </mxCell>
        <mxCell id="m8OK_smeokGkB11U6Oso-6" style="edgeStyle=orthogonalEdgeStyle;rounded=0;orthogonalLoop=1;jettySize=auto;html=1;exitX=0.5;exitY=0;exitDx=0;exitDy=0;entryX=0.5;entryY=1;entryDx=0;entryDy=0;" edge="1" parent="m8OK_smeokGkB11U6Oso-25" source="dSL3fzfyohUc4hpSt6JH-4" target="m8OK_smeokGkB11U6Oso-5">
          <mxGeometry relative="1" as="geometry" />
        </mxCell>
        <mxCell id="dSL3fzfyohUc4hpSt6JH-4" value="" style="ellipse;whiteSpace=wrap;html=1;fillColor=#f5f5f5;strokeColor=#666666;fontColor=#333333;" vertex="1" parent="m8OK_smeokGkB11U6Oso-25">
          <mxGeometry x="22.5" y="120" width="80" height="80" as="geometry" />
        </mxCell>
        <mxCell id="m8OK_smeokGkB11U6Oso-0" value="..." style="rounded=0;whiteSpace=wrap;html=1;fillColor=#fff2cc;strokeColor=#d6b656;" vertex="1" parent="m8OK_smeokGkB11U6Oso-25">
          <mxGeometry x="2.5" y="50" width="30" height="30" as="geometry" />
        </mxCell>
        <mxCell id="m8OK_smeokGkB11U6Oso-2" value="..." style="rounded=0;whiteSpace=wrap;html=1;fillColor=#fff2cc;strokeColor=#d6b656;" vertex="1" parent="m8OK_smeokGkB11U6Oso-25">
          <mxGeometry x="47.5" y="50" width="30" height="30" as="geometry" />
        </mxCell>
        <mxCell id="m8OK_smeokGkB11U6Oso-5" value="..." style="rounded=0;whiteSpace=wrap;html=1;fillColor=#fff2cc;strokeColor=#d6b656;" vertex="1" parent="m8OK_smeokGkB11U6Oso-25">
          <mxGeometry x="92.5" y="50" width="30" height="30" as="geometry" />
        </mxCell>
        <mxCell id="m8OK_smeokGkB11U6Oso-11" value="Decl" style="edgeLabel;html=1;align=center;verticalAlign=middle;resizable=0;points=[];fontStyle=2" vertex="1" connectable="0" parent="m8OK_smeokGkB11U6Oso-25">
          <mxGeometry x="47.5" y="110" as="geometry" />
        </mxCell>
        <mxCell id="m8OK_smeokGkB11U6Oso-41" value="" style="group" vertex="1" connectable="0" parent="m8OK_smeokGkB11U6Oso-25">
          <mxGeometry width="130" height="103.75" as="geometry" />
        </mxCell>
        <mxCell id="m8OK_smeokGkB11U6Oso-7" value="" style="shape=curlyBracket;whiteSpace=wrap;html=1;rounded=1;flipH=1;labelPosition=right;verticalLabelPosition=middle;align=left;verticalAlign=middle;rotation=-90;" vertex="1" parent="m8OK_smeokGkB11U6Oso-41">
          <mxGeometry x="53.75" y="-28.75" width="20" height="132.5" as="geometry" />
        </mxCell>
        <mxCell id="m8OK_smeokGkB11U6Oso-9" value="`N_{data}`" style="text;html=1;align=center;verticalAlign=middle;whiteSpace=wrap;rounded=0;" vertex="1" parent="m8OK_smeokGkB11U6Oso-41">
          <mxGeometry x="33.75" width="60" height="30" as="geometry" />
        </mxCell>
        <mxCell id="m8OK_smeokGkB11U6Oso-26" value="" style="group" vertex="1" connectable="0" parent="dSL3fzfyohUc4hpSt6JH-1">
          <mxGeometry x="349" y="150" width="130" height="200" as="geometry" />
        </mxCell>
        <mxCell id="m8OK_smeokGkB11U6Oso-27" style="edgeStyle=orthogonalEdgeStyle;rounded=0;orthogonalLoop=1;jettySize=auto;html=1;exitX=0.5;exitY=0;exitDx=0;exitDy=0;" edge="1" parent="m8OK_smeokGkB11U6Oso-26" source="m8OK_smeokGkB11U6Oso-30" target="m8OK_smeokGkB11U6Oso-31">
          <mxGeometry relative="1" as="geometry" />
        </mxCell>
        <mxCell id="m8OK_smeokGkB11U6Oso-28" style="edgeStyle=orthogonalEdgeStyle;rounded=0;orthogonalLoop=1;jettySize=auto;html=1;exitX=0.5;exitY=0;exitDx=0;exitDy=0;entryX=0.5;entryY=1;entryDx=0;entryDy=0;" edge="1" parent="m8OK_smeokGkB11U6Oso-26" source="m8OK_smeokGkB11U6Oso-30" target="m8OK_smeokGkB11U6Oso-32">
          <mxGeometry relative="1" as="geometry" />
        </mxCell>
        <mxCell id="m8OK_smeokGkB11U6Oso-29" style="edgeStyle=orthogonalEdgeStyle;rounded=0;orthogonalLoop=1;jettySize=auto;html=1;exitX=0.5;exitY=0;exitDx=0;exitDy=0;entryX=0.5;entryY=1;entryDx=0;entryDy=0;" edge="1" parent="m8OK_smeokGkB11U6Oso-26" source="m8OK_smeokGkB11U6Oso-30" target="m8OK_smeokGkB11U6Oso-33">
          <mxGeometry relative="1" as="geometry" />
        </mxCell>
        <mxCell id="m8OK_smeokGkB11U6Oso-37" style="edgeStyle=orthogonalEdgeStyle;rounded=0;orthogonalLoop=1;jettySize=auto;html=1;exitX=0;exitY=0.5;exitDx=0;exitDy=0;" edge="1" parent="m8OK_smeokGkB11U6Oso-26" source="m8OK_smeokGkB11U6Oso-30">
          <mxGeometry relative="1" as="geometry">
            <mxPoint x="-39" y="160.05555555555554" as="targetPoint" />
          </mxGeometry>
        </mxCell>
        <mxCell id="m8OK_smeokGkB11U6Oso-30" value="" style="ellipse;whiteSpace=wrap;html=1;fillColor=#f5f5f5;strokeColor=#666666;fontColor=#333333;" vertex="1" parent="m8OK_smeokGkB11U6Oso-26">
          <mxGeometry x="22.5" y="120" width="80" height="80" as="geometry" />
        </mxCell>
        <mxCell id="m8OK_smeokGkB11U6Oso-31" value="..." style="rounded=0;whiteSpace=wrap;html=1;fillColor=#fff2cc;strokeColor=#d6b656;" vertex="1" parent="m8OK_smeokGkB11U6Oso-26">
          <mxGeometry x="2.5" y="50" width="30" height="30" as="geometry" />
        </mxCell>
        <mxCell id="m8OK_smeokGkB11U6Oso-32" value="..." style="rounded=0;whiteSpace=wrap;html=1;fillColor=#fff2cc;strokeColor=#d6b656;" vertex="1" parent="m8OK_smeokGkB11U6Oso-26">
          <mxGeometry x="47.5" y="50" width="30" height="30" as="geometry" />
        </mxCell>
        <mxCell id="m8OK_smeokGkB11U6Oso-33" value="..." style="rounded=0;whiteSpace=wrap;html=1;fillColor=#fff2cc;strokeColor=#d6b656;" vertex="1" parent="m8OK_smeokGkB11U6Oso-26">
          <mxGeometry x="92.5" y="50" width="30" height="30" as="geometry" />
        </mxCell>
        <mxCell id="m8OK_smeokGkB11U6Oso-36" value="Decl" style="edgeLabel;html=1;align=center;verticalAlign=middle;resizable=0;points=[];fontStyle=2" vertex="1" connectable="0" parent="m8OK_smeokGkB11U6Oso-26">
          <mxGeometry x="47.5" y="110" as="geometry" />
        </mxCell>
        <mxCell id="m8OK_smeokGkB11U6Oso-38" value="Extend" style="text;html=1;align=center;verticalAlign=middle;whiteSpace=wrap;rounded=0;fontStyle=2" vertex="1" parent="m8OK_smeokGkB11U6Oso-26">
          <mxGeometry x="-37.5" y="130" width="60" height="30" as="geometry" />
        </mxCell>
        <mxCell id="m8OK_smeokGkB11U6Oso-40" value="" style="group" vertex="1" connectable="0" parent="dSL3fzfyohUc4hpSt6JH-1">
          <mxGeometry x="235" y="355" width="230" height="166.25" as="geometry" />
        </mxCell>
        <mxCell id="dSL3fzfyohUc4hpSt6JH-9" value="" style="shape=curlyBracket;whiteSpace=wrap;html=1;rounded=1;flipH=1;labelPosition=right;verticalLabelPosition=middle;align=left;verticalAlign=middle;rotation=90;" vertex="1" parent="m8OK_smeokGkB11U6Oso-40">
          <mxGeometry x="98.75" y="-146.25" width="20" height="312.5" as="geometry" />
        </mxCell>
        <mxCell id="m8OK_smeokGkB11U6Oso-39" value="`N_{fan}`" style="text;html=1;align=center;verticalAlign=middle;whiteSpace=wrap;rounded=0;" vertex="1" parent="m8OK_smeokGkB11U6Oso-40">
          <mxGeometry x="78.75" y="15" width="60" height="30" as="geometry" />
        </mxCell>
        <mxCell id="zPpROsIqiZGeQIITeruv-0" style="edgeStyle=orthogonalEdgeStyle;rounded=0;orthogonalLoop=1;jettySize=auto;html=1;dashed=1;" edge="1" parent="dSL3fzfyohUc4hpSt6JH-1">
          <mxGeometry relative="1" as="geometry">
            <mxPoint x="450" y="310.05555555555554" as="targetPoint" />
            <mxPoint x="500" y="310" as="sourcePoint" />
            <Array as="points">
              <mxPoint x="480" y="310" />
            </Array>
          </mxGeometry>
        </mxCell>
        <mxCell id="zPpROsIqiZGeQIITeruv-1" style="edgeStyle=orthogonalEdgeStyle;rounded=0;orthogonalLoop=1;jettySize=auto;html=1;dashed=1;" edge="1" parent="dSL3fzfyohUc4hpSt6JH-1">
          <mxGeometry relative="1" as="geometry">
            <mxPoint x="180" y="310.05555555555554" as="targetPoint" />
            <mxPoint x="230" y="310" as="sourcePoint" />
            <Array as="points">
              <mxPoint x="210" y="310" />
            </Array>
          </mxGeometry>
        </mxCell>
      </root>
    </mxGraphModel>
  </diagram>
  <diagram name="Tail" id="8g2eO6LnhncVEWdPnvlu">
    <mxGraphModel dx="712" dy="634" grid="1" gridSize="10" guides="1" tooltips="1" connect="1" arrows="1" fold="1" page="1" pageScale="1" pageWidth="827" pageHeight="1169" math="1" shadow="0">
      <root>
        <mxCell id="NHg67rsCWKuoQGWjSEhq-0" />
        <mxCell id="NHg67rsCWKuoQGWjSEhq-1" parent="NHg67rsCWKuoQGWjSEhq-0" />
        <mxCell id="wvyN5KJl0gTwu3goYMNr-6" value="" style="shape=curlyBracket;whiteSpace=wrap;html=1;rounded=1;flipH=1;labelPosition=right;verticalLabelPosition=middle;align=left;verticalAlign=middle;rotation=90;" vertex="1" parent="NHg67rsCWKuoQGWjSEhq-1">
          <mxGeometry x="291.5" y="520" width="20" height="195" as="geometry" />
        </mxCell>
        <mxCell id="wvyN5KJl0gTwu3goYMNr-9" value="`X_{branch}`" style="text;html=1;align=center;verticalAlign=middle;whiteSpace=wrap;rounded=0;" vertex="1" parent="NHg67rsCWKuoQGWjSEhq-1">
          <mxGeometry x="270" y="622.5" width="60" height="30" as="geometry" />
        </mxCell>
        <mxCell id="wvyN5KJl0gTwu3goYMNr-1" value="" style="ellipse;whiteSpace=wrap;html=1;fillColor=#f5f5f5;strokeColor=#666666;fontColor=#333333;" vertex="1" parent="NHg67rsCWKuoQGWjSEhq-1">
          <mxGeometry x="260" y="150" width="80" height="80" as="geometry" />
        </mxCell>
        <mxCell id="wvyN5KJl0gTwu3goYMNr-2" style="edgeStyle=orthogonalEdgeStyle;rounded=0;orthogonalLoop=1;jettySize=auto;html=1;exitX=0.5;exitY=0;exitDx=0;exitDy=0;entryX=0.5;entryY=1;entryDx=0;entryDy=0;" edge="1" parent="NHg67rsCWKuoQGWjSEhq-1" source="wvyN5KJl0gTwu3goYMNr-3" target="wvyN5KJl0gTwu3goYMNr-1">
          <mxGeometry relative="1" as="geometry">
            <Array as="points">
              <mxPoint x="240" y="250" />
              <mxPoint x="300" y="250" />
            </Array>
          </mxGeometry>
        </mxCell>
        <mxCell id="wvyN5KJl0gTwu3goYMNr-3" value="" style="ellipse;whiteSpace=wrap;html=1;fillColor=#f5f5f5;strokeColor=#666666;fontColor=#333333;" vertex="1" parent="NHg67rsCWKuoQGWjSEhq-1">
          <mxGeometry x="200" y="280" width="80" height="80" as="geometry" />
        </mxCell>
        <mxCell id="wvyN5KJl0gTwu3goYMNr-4" style="edgeStyle=orthogonalEdgeStyle;rounded=0;orthogonalLoop=1;jettySize=auto;html=1;exitX=0.5;exitY=0;exitDx=0;exitDy=0;" edge="1" parent="NHg67rsCWKuoQGWjSEhq-1" source="wvyN5KJl0gTwu3goYMNr-5">
          <mxGeometry relative="1" as="geometry">
            <mxPoint x="299.8571428571429" y="230" as="targetPoint" />
            <Array as="points">
              <mxPoint x="360" y="250" />
              <mxPoint x="300" y="250" />
            </Array>
          </mxGeometry>
        </mxCell>
        <mxCell id="wvyN5KJl0gTwu3goYMNr-5" value="" style="ellipse;whiteSpace=wrap;html=1;fillColor=#f5f5f5;strokeColor=#666666;fontColor=#333333;" vertex="1" parent="NHg67rsCWKuoQGWjSEhq-1">
          <mxGeometry x="320" y="280" width="80" height="80" as="geometry" />
        </mxCell>
        <mxCell id="sg_hCn_HOP9fXky73qgR-4" style="edgeStyle=orthogonalEdgeStyle;rounded=0;orthogonalLoop=1;jettySize=auto;html=1;exitX=0.5;exitY=0;exitDx=0;exitDy=0;entryX=0.5;entryY=1;entryDx=0;entryDy=0;dashed=1;" edge="1" parent="NHg67rsCWKuoQGWjSEhq-1" source="sg_hCn_HOP9fXky73qgR-0" target="sg_hCn_HOP9fXky73qgR-2">
          <mxGeometry relative="1" as="geometry" />
        </mxCell>
        <mxCell id="sg_hCn_HOP9fXky73qgR-0" value="&lt;font style=&quot;font-size: 24px;&quot;&gt;&lt;b&gt;S&lt;/b&gt;&lt;/font&gt;" style="ellipse;whiteSpace=wrap;html=1;fillColor=#f5f5f5;strokeColor=#666666;fontColor=#333333;" vertex="1" parent="NHg67rsCWKuoQGWjSEhq-1">
          <mxGeometry x="320" y="500" width="80" height="80" as="geometry" />
        </mxCell>
        <mxCell id="sg_hCn_HOP9fXky73qgR-3" style="edgeStyle=orthogonalEdgeStyle;rounded=0;orthogonalLoop=1;jettySize=auto;html=1;exitX=0.5;exitY=0;exitDx=0;exitDy=0;entryX=0.5;entryY=1;entryDx=0;entryDy=0;dashed=1;" edge="1" parent="NHg67rsCWKuoQGWjSEhq-1" source="sg_hCn_HOP9fXky73qgR-2" target="wvyN5KJl0gTwu3goYMNr-5">
          <mxGeometry relative="1" as="geometry" />
        </mxCell>
        <mxCell id="sg_hCn_HOP9fXky73qgR-2" value="" style="ellipse;whiteSpace=wrap;html=1;fillColor=#f5f5f5;strokeColor=#666666;fontColor=#333333;dashed=1;" vertex="1" parent="NHg67rsCWKuoQGWjSEhq-1">
          <mxGeometry x="320" y="390" width="80" height="80" as="geometry" />
        </mxCell>
        <mxCell id="sg_hCn_HOP9fXky73qgR-5" style="edgeStyle=orthogonalEdgeStyle;rounded=0;orthogonalLoop=1;jettySize=auto;html=1;exitX=0.5;exitY=0;exitDx=0;exitDy=0;entryX=0.5;entryY=1;entryDx=0;entryDy=0;dashed=1;" edge="1" parent="NHg67rsCWKuoQGWjSEhq-1" target="sg_hCn_HOP9fXky73qgR-7">
          <mxGeometry relative="1" as="geometry">
            <mxPoint x="240" y="500" as="sourcePoint" />
          </mxGeometry>
        </mxCell>
        <mxCell id="sg_hCn_HOP9fXky73qgR-6" style="edgeStyle=orthogonalEdgeStyle;rounded=0;orthogonalLoop=1;jettySize=auto;html=1;exitX=0.5;exitY=0;exitDx=0;exitDy=0;entryX=0.5;entryY=1;entryDx=0;entryDy=0;dashed=1;" edge="1" parent="NHg67rsCWKuoQGWjSEhq-1" source="sg_hCn_HOP9fXky73qgR-7">
          <mxGeometry relative="1" as="geometry">
            <mxPoint x="240" y="360" as="targetPoint" />
          </mxGeometry>
        </mxCell>
        <mxCell id="sg_hCn_HOP9fXky73qgR-7" value="" style="ellipse;whiteSpace=wrap;html=1;fillColor=#f5f5f5;strokeColor=#666666;fontColor=#333333;dashed=1;" vertex="1" parent="NHg67rsCWKuoQGWjSEhq-1">
          <mxGeometry x="200" y="390" width="80" height="80" as="geometry" />
        </mxCell>
        <mxCell id="sg_hCn_HOP9fXky73qgR-8" value="&lt;font style=&quot;font-size: 24px;&quot;&gt;&lt;b&gt;S&lt;/b&gt;&lt;/font&gt;" style="ellipse;whiteSpace=wrap;html=1;fillColor=#f5f5f5;strokeColor=#666666;fontColor=#333333;" vertex="1" parent="NHg67rsCWKuoQGWjSEhq-1">
          <mxGeometry x="200" y="500" width="80" height="80" as="geometry" />
        </mxCell>
        <mxCell id="sg_hCn_HOP9fXky73qgR-9" value="" style="shape=curlyBracket;whiteSpace=wrap;html=1;rounded=1;flipH=1;labelPosition=right;verticalLabelPosition=middle;align=left;verticalAlign=middle;rotation=0;" vertex="1" parent="NHg67rsCWKuoQGWjSEhq-1">
          <mxGeometry x="430" y="275" width="20" height="305" as="geometry" />
        </mxCell>
        <mxCell id="sg_hCn_HOP9fXky73qgR-10" value="`X_{tail size}`" style="text;html=1;align=center;verticalAlign=middle;whiteSpace=wrap;rounded=0;" vertex="1" parent="NHg67rsCWKuoQGWjSEhq-1">
          <mxGeometry x="450" y="412.5" width="60" height="30" as="geometry" />
        </mxCell>
        <mxCell id="sg_hCn_HOP9fXky73qgR-11" style="edgeStyle=orthogonalEdgeStyle;rounded=0;orthogonalLoop=1;jettySize=auto;html=1;exitX=0.5;exitY=0;exitDx=0;exitDy=0;dashed=1;" edge="1" parent="NHg67rsCWKuoQGWjSEhq-1">
          <mxGeometry relative="1" as="geometry">
            <mxPoint x="299.76" y="150" as="sourcePoint" />
            <mxPoint x="300" y="90" as="targetPoint" />
          </mxGeometry>
        </mxCell>
        <mxCell id="sg_hCn_HOP9fXky73qgR-13" value="Parent" style="text;html=1;align=center;verticalAlign=middle;whiteSpace=wrap;rounded=0;fontStyle=2" vertex="1" parent="NHg67rsCWKuoQGWjSEhq-1">
          <mxGeometry x="240" y="360" width="60" height="30" as="geometry" />
        </mxCell>
        <mxCell id="sg_hCn_HOP9fXky73qgR-14" value="Parent" style="text;html=1;align=center;verticalAlign=middle;whiteSpace=wrap;rounded=0;fontStyle=2" vertex="1" parent="NHg67rsCWKuoQGWjSEhq-1">
          <mxGeometry x="360" y="360" width="60" height="30" as="geometry" />
        </mxCell>
        <mxCell id="sg_hCn_HOP9fXky73qgR-15" value="Parent" style="text;html=1;align=center;verticalAlign=middle;whiteSpace=wrap;rounded=0;fontStyle=2" vertex="1" parent="NHg67rsCWKuoQGWjSEhq-1">
          <mxGeometry x="360" y="470" width="60" height="30" as="geometry" />
        </mxCell>
        <mxCell id="sg_hCn_HOP9fXky73qgR-16" value="Parent" style="text;html=1;align=center;verticalAlign=middle;whiteSpace=wrap;rounded=0;fontStyle=2" vertex="1" parent="NHg67rsCWKuoQGWjSEhq-1">
          <mxGeometry x="240" y="470" width="60" height="30" as="geometry" />
        </mxCell>
        <mxCell id="sg_hCn_HOP9fXky73qgR-17" value="Parent" style="text;html=1;align=center;verticalAlign=middle;whiteSpace=wrap;rounded=0;fontStyle=2" vertex="1" parent="NHg67rsCWKuoQGWjSEhq-1">
          <mxGeometry x="354" y="250" width="60" height="30" as="geometry" />
        </mxCell>
        <mxCell id="sg_hCn_HOP9fXky73qgR-20" value="&lt;i&gt;Parent&lt;/i&gt;" style="text;html=1;align=center;verticalAlign=middle;whiteSpace=wrap;rounded=0;" vertex="1" parent="NHg67rsCWKuoQGWjSEhq-1">
          <mxGeometry x="240" y="250" width="60" height="30" as="geometry" />
        </mxCell>
      </root>
    </mxGraphModel>
  </diagram>
  <diagram id="az8YgZfRKhQ6Av6yLShX" name="Sample">
    <mxGraphModel dx="1780" dy="1586" grid="1" gridSize="10" guides="1" tooltips="1" connect="1" arrows="1" fold="1" page="1" pageScale="1" pageWidth="827" pageHeight="1169" math="1" shadow="0">
      <root>
        <mxCell id="0" />
        <mxCell id="1" parent="0" />
        <mxCell id="qwBd8NuF4paR_e0xq4lC-17" value="" style="ellipse;whiteSpace=wrap;html=1;fillColor=#ffe6cc;strokeColor=#d79b00;dashed=1;" vertex="1" parent="1">
          <mxGeometry x="120" y="585" width="350" height="295" as="geometry" />
        </mxCell>
        <mxCell id="6rFfw6pohZn4zRNMaows-22" value="" style="ellipse;whiteSpace=wrap;html=1;fillColor=#d5e8d4;strokeColor=#82b366;dashed=1;" vertex="1" parent="1">
          <mxGeometry x="130" y="330" width="335.75" height="250" as="geometry" />
        </mxCell>
        <mxCell id="O3yHWMKbLrLSKcHECvgQ-28" value="" style="ellipse;whiteSpace=wrap;html=1;fillColor=#dae8fc;strokeColor=#6c8ebf;dashed=1;" vertex="1" parent="1">
          <mxGeometry x="130" y="50" width="330" height="270" as="geometry" />
        </mxCell>
        <mxCell id="O3yHWMKbLrLSKcHECvgQ-27" value="" style="group" vertex="1" connectable="0" parent="1">
          <mxGeometry x="160" y="70" width="271.5" height="200" as="geometry" />
        </mxCell>
        <mxCell id="O3yHWMKbLrLSKcHECvgQ-1" value="" style="group" vertex="1" connectable="0" parent="O3yHWMKbLrLSKcHECvgQ-27">
          <mxGeometry width="163" height="200" as="geometry" />
        </mxCell>
        <mxCell id="O3yHWMKbLrLSKcHECvgQ-2" style="edgeStyle=orthogonalEdgeStyle;rounded=0;orthogonalLoop=1;jettySize=auto;html=1;exitX=0.5;exitY=0;exitDx=0;exitDy=0;" edge="1" parent="O3yHWMKbLrLSKcHECvgQ-1" source="O3yHWMKbLrLSKcHECvgQ-5" target="O3yHWMKbLrLSKcHECvgQ-6">
          <mxGeometry relative="1" as="geometry" />
        </mxCell>
        <mxCell id="O3yHWMKbLrLSKcHECvgQ-3" style="edgeStyle=orthogonalEdgeStyle;rounded=0;orthogonalLoop=1;jettySize=auto;html=1;exitX=0.5;exitY=0;exitDx=0;exitDy=0;entryX=0.5;entryY=1;entryDx=0;entryDy=0;" edge="1" parent="O3yHWMKbLrLSKcHECvgQ-1" source="O3yHWMKbLrLSKcHECvgQ-5" target="O3yHWMKbLrLSKcHECvgQ-7">
          <mxGeometry relative="1" as="geometry" />
        </mxCell>
        <mxCell id="O3yHWMKbLrLSKcHECvgQ-4" style="edgeStyle=orthogonalEdgeStyle;rounded=0;orthogonalLoop=1;jettySize=auto;html=1;exitX=0.5;exitY=0;exitDx=0;exitDy=0;entryX=0.5;entryY=1;entryDx=0;entryDy=0;" edge="1" parent="O3yHWMKbLrLSKcHECvgQ-1" source="O3yHWMKbLrLSKcHECvgQ-5" target="O3yHWMKbLrLSKcHECvgQ-8">
          <mxGeometry relative="1" as="geometry" />
        </mxCell>
        <mxCell id="O3yHWMKbLrLSKcHECvgQ-5" value="" style="ellipse;whiteSpace=wrap;html=1;fillColor=#f5f5f5;strokeColor=#666666;fontColor=#333333;" vertex="1" parent="O3yHWMKbLrLSKcHECvgQ-1">
          <mxGeometry x="22.5" y="120" width="80" height="80" as="geometry" />
        </mxCell>
        <mxCell id="O3yHWMKbLrLSKcHECvgQ-6" value="..." style="rounded=0;whiteSpace=wrap;html=1;fillColor=#fff2cc;strokeColor=#d6b656;" vertex="1" parent="O3yHWMKbLrLSKcHECvgQ-1">
          <mxGeometry x="2.5" y="50" width="30" height="30" as="geometry" />
        </mxCell>
        <mxCell id="O3yHWMKbLrLSKcHECvgQ-7" value="..." style="rounded=0;whiteSpace=wrap;html=1;fillColor=#fff2cc;strokeColor=#d6b656;" vertex="1" parent="O3yHWMKbLrLSKcHECvgQ-1">
          <mxGeometry x="47.5" y="50" width="30" height="30" as="geometry" />
        </mxCell>
        <mxCell id="O3yHWMKbLrLSKcHECvgQ-8" value="..." style="rounded=0;whiteSpace=wrap;html=1;fillColor=#fff2cc;strokeColor=#d6b656;" vertex="1" parent="O3yHWMKbLrLSKcHECvgQ-1">
          <mxGeometry x="92.5" y="50" width="30" height="30" as="geometry" />
        </mxCell>
        <mxCell id="O3yHWMKbLrLSKcHECvgQ-13" value="" style="group" vertex="1" connectable="0" parent="O3yHWMKbLrLSKcHECvgQ-27">
          <mxGeometry x="141.5" width="130" height="200" as="geometry" />
        </mxCell>
        <mxCell id="O3yHWMKbLrLSKcHECvgQ-14" style="edgeStyle=orthogonalEdgeStyle;rounded=0;orthogonalLoop=1;jettySize=auto;html=1;exitX=0.5;exitY=0;exitDx=0;exitDy=0;" edge="1" parent="O3yHWMKbLrLSKcHECvgQ-13" source="O3yHWMKbLrLSKcHECvgQ-18" target="O3yHWMKbLrLSKcHECvgQ-19">
          <mxGeometry relative="1" as="geometry" />
        </mxCell>
        <mxCell id="O3yHWMKbLrLSKcHECvgQ-15" style="edgeStyle=orthogonalEdgeStyle;rounded=0;orthogonalLoop=1;jettySize=auto;html=1;exitX=0.5;exitY=0;exitDx=0;exitDy=0;entryX=0.5;entryY=1;entryDx=0;entryDy=0;" edge="1" parent="O3yHWMKbLrLSKcHECvgQ-13" source="O3yHWMKbLrLSKcHECvgQ-18" target="O3yHWMKbLrLSKcHECvgQ-20">
          <mxGeometry relative="1" as="geometry" />
        </mxCell>
        <mxCell id="O3yHWMKbLrLSKcHECvgQ-16" style="edgeStyle=orthogonalEdgeStyle;rounded=0;orthogonalLoop=1;jettySize=auto;html=1;exitX=0.5;exitY=0;exitDx=0;exitDy=0;entryX=0.5;entryY=1;entryDx=0;entryDy=0;" edge="1" parent="O3yHWMKbLrLSKcHECvgQ-13" source="O3yHWMKbLrLSKcHECvgQ-18" target="O3yHWMKbLrLSKcHECvgQ-21">
          <mxGeometry relative="1" as="geometry" />
        </mxCell>
        <mxCell id="O3yHWMKbLrLSKcHECvgQ-17" style="edgeStyle=orthogonalEdgeStyle;rounded=0;orthogonalLoop=1;jettySize=auto;html=1;exitX=0;exitY=0.5;exitDx=0;exitDy=0;" edge="1" parent="O3yHWMKbLrLSKcHECvgQ-13" source="O3yHWMKbLrLSKcHECvgQ-18">
          <mxGeometry relative="1" as="geometry">
            <mxPoint x="-39" y="160.05555555555554" as="targetPoint" />
          </mxGeometry>
        </mxCell>
        <mxCell id="O3yHWMKbLrLSKcHECvgQ-18" value="" style="ellipse;whiteSpace=wrap;html=1;fillColor=#f5f5f5;strokeColor=#666666;fontColor=#333333;" vertex="1" parent="O3yHWMKbLrLSKcHECvgQ-13">
          <mxGeometry x="22.5" y="120" width="80" height="80" as="geometry" />
        </mxCell>
        <mxCell id="O3yHWMKbLrLSKcHECvgQ-19" value="..." style="rounded=0;whiteSpace=wrap;html=1;fillColor=#fff2cc;strokeColor=#d6b656;" vertex="1" parent="O3yHWMKbLrLSKcHECvgQ-13">
          <mxGeometry x="2.5" y="50" width="30" height="30" as="geometry" />
        </mxCell>
        <mxCell id="O3yHWMKbLrLSKcHECvgQ-20" value="..." style="rounded=0;whiteSpace=wrap;html=1;fillColor=#fff2cc;strokeColor=#d6b656;" vertex="1" parent="O3yHWMKbLrLSKcHECvgQ-13">
          <mxGeometry x="47.5" y="50" width="30" height="30" as="geometry" />
        </mxCell>
        <mxCell id="O3yHWMKbLrLSKcHECvgQ-21" value="..." style="rounded=0;whiteSpace=wrap;html=1;fillColor=#fff2cc;strokeColor=#d6b656;" vertex="1" parent="O3yHWMKbLrLSKcHECvgQ-13">
          <mxGeometry x="92.5" y="50" width="30" height="30" as="geometry" />
        </mxCell>
        <mxCell id="O3yHWMKbLrLSKcHECvgQ-23" value="Extend" style="text;html=1;align=center;verticalAlign=middle;whiteSpace=wrap;rounded=0;fontStyle=2" vertex="1" parent="O3yHWMKbLrLSKcHECvgQ-13">
          <mxGeometry x="-37.5" y="130" width="60" height="30" as="geometry" />
        </mxCell>
        <mxCell id="O3yHWMKbLrLSKcHECvgQ-29" value="Decl" style="text;html=1;align=center;verticalAlign=middle;whiteSpace=wrap;rounded=0;fontStyle=2" vertex="1" parent="O3yHWMKbLrLSKcHECvgQ-13">
          <mxGeometry x="22.5" y="100" width="40" height="20" as="geometry" />
        </mxCell>
        <mxCell id="O3yHWMKbLrLSKcHECvgQ-32" value="Decl" style="text;html=1;align=center;verticalAlign=middle;whiteSpace=wrap;rounded=0;fontStyle=2" vertex="1" parent="1">
          <mxGeometry x="180" y="170" width="40" height="20" as="geometry" />
        </mxCell>
        <mxCell id="6rFfw6pohZn4zRNMaows-8" style="edgeStyle=orthogonalEdgeStyle;rounded=0;orthogonalLoop=1;jettySize=auto;html=1;exitX=0.5;exitY=0;exitDx=0;exitDy=0;entryX=0.5;entryY=1;entryDx=0;entryDy=0;" edge="1" parent="1" source="6rFfw6pohZn4zRNMaows-2" target="O3yHWMKbLrLSKcHECvgQ-18">
          <mxGeometry relative="1" as="geometry">
            <Array as="points">
              <mxPoint x="300" y="300" />
              <mxPoint x="364" y="300" />
            </Array>
          </mxGeometry>
        </mxCell>
        <mxCell id="6rFfw6pohZn4zRNMaows-20" value="Parent" style="text;html=1;align=center;verticalAlign=middle;whiteSpace=wrap;rounded=0;fontStyle=2" vertex="1" parent="1">
          <mxGeometry x="306" y="350" width="44" height="20" as="geometry" />
        </mxCell>
        <mxCell id="6rFfw6pohZn4zRNMaows-2" value="" style="ellipse;whiteSpace=wrap;html=1;fillColor=#f5f5f5;fontColor=#333333;strokeColor=#666666;" vertex="1" parent="1">
          <mxGeometry x="260" y="370" width="80" height="80" as="geometry" />
        </mxCell>
        <mxCell id="6rFfw6pohZn4zRNMaows-3" style="edgeStyle=orthogonalEdgeStyle;rounded=0;orthogonalLoop=1;jettySize=auto;html=1;exitX=0.5;exitY=0;exitDx=0;exitDy=0;entryX=0.5;entryY=1;entryDx=0;entryDy=0;" edge="1" parent="1" source="6rFfw6pohZn4zRNMaows-7" target="6rFfw6pohZn4zRNMaows-2">
          <mxGeometry relative="1" as="geometry">
            <mxPoint x="300" y="430" as="sourcePoint" />
          </mxGeometry>
        </mxCell>
        <mxCell id="6rFfw6pohZn4zRNMaows-7" value="" style="ellipse;whiteSpace=wrap;html=1;fillColor=#f5f5f5;fontColor=#333333;strokeColor=#666666;" vertex="1" parent="1">
          <mxGeometry x="260" y="480" width="80" height="80" as="geometry" />
        </mxCell>
        <mxCell id="6rFfw6pohZn4zRNMaows-10" value="Parent" style="text;html=1;align=center;verticalAlign=middle;whiteSpace=wrap;rounded=0;fontStyle=2" vertex="1" parent="1">
          <mxGeometry x="306" y="460" width="44" height="20" as="geometry" />
        </mxCell>
        <mxCell id="O3yHWMKbLrLSKcHECvgQ-34" value="&lt;b&gt;&lt;font style=&quot;font-size: 24px;&quot;&gt;Head&lt;/font&gt;&lt;/b&gt;" style="text;html=1;align=center;verticalAlign=middle;whiteSpace=wrap;rounded=0;" vertex="1" parent="1">
          <mxGeometry x="267" y="60" width="66" height="30" as="geometry" />
        </mxCell>
        <mxCell id="6rFfw6pohZn4zRNMaows-23" value="&lt;font style=&quot;font-size: 24px;&quot;&gt;&lt;b&gt;Body&lt;/b&gt;&lt;/font&gt;" style="text;html=1;align=center;verticalAlign=middle;whiteSpace=wrap;rounded=0;" vertex="1" parent="1">
          <mxGeometry x="154" y="440" width="66" height="30" as="geometry" />
        </mxCell>
        <mxCell id="qwBd8NuF4paR_e0xq4lC-12" style="edgeStyle=orthogonalEdgeStyle;rounded=0;orthogonalLoop=1;jettySize=auto;html=1;exitX=0.5;exitY=0;exitDx=0;exitDy=0;entryX=0.5;entryY=1;entryDx=0;entryDy=0;" edge="1" parent="1" source="qwBd8NuF4paR_e0xq4lC-2" target="6rFfw6pohZn4zRNMaows-7">
          <mxGeometry relative="1" as="geometry" />
        </mxCell>
        <mxCell id="qwBd8NuF4paR_e0xq4lC-2" value="" style="ellipse;whiteSpace=wrap;html=1;fillColor=#f5f5f5;strokeColor=#666666;fontColor=#333333;" vertex="1" parent="1">
          <mxGeometry x="260" y="620" width="80" height="80" as="geometry" />
        </mxCell>
        <mxCell id="qwBd8NuF4paR_e0xq4lC-3" style="edgeStyle=orthogonalEdgeStyle;rounded=0;orthogonalLoop=1;jettySize=auto;html=1;exitX=0.5;exitY=0;exitDx=0;exitDy=0;entryX=0.5;entryY=1;entryDx=0;entryDy=0;" edge="1" parent="1" source="qwBd8NuF4paR_e0xq4lC-4" target="qwBd8NuF4paR_e0xq4lC-2">
          <mxGeometry relative="1" as="geometry">
            <Array as="points">
              <mxPoint x="240" y="720" />
              <mxPoint x="300" y="720" />
            </Array>
          </mxGeometry>
        </mxCell>
        <mxCell id="qwBd8NuF4paR_e0xq4lC-4" value="&lt;font style=&quot;font-size: 24px;&quot;&gt;&lt;b&gt;S&lt;/b&gt;&lt;/font&gt;" style="ellipse;whiteSpace=wrap;html=1;fillColor=#f5f5f5;strokeColor=#666666;fontColor=#333333;" vertex="1" parent="1">
          <mxGeometry x="200" y="750" width="80" height="80" as="geometry" />
        </mxCell>
        <mxCell id="qwBd8NuF4paR_e0xq4lC-5" style="edgeStyle=orthogonalEdgeStyle;rounded=0;orthogonalLoop=1;jettySize=auto;html=1;exitX=0.5;exitY=0;exitDx=0;exitDy=0;" edge="1" parent="1" source="qwBd8NuF4paR_e0xq4lC-6">
          <mxGeometry relative="1" as="geometry">
            <mxPoint x="299.8571428571429" y="700" as="targetPoint" />
            <Array as="points">
              <mxPoint x="360" y="720" />
              <mxPoint x="300" y="720" />
            </Array>
          </mxGeometry>
        </mxCell>
        <mxCell id="qwBd8NuF4paR_e0xq4lC-6" value="&lt;font style=&quot;font-size: 24px;&quot;&gt;&lt;b&gt;S&lt;/b&gt;&lt;/font&gt;" style="ellipse;whiteSpace=wrap;html=1;fillColor=#f5f5f5;strokeColor=#666666;fontColor=#333333;" vertex="1" parent="1">
          <mxGeometry x="320" y="750" width="80" height="80" as="geometry" />
        </mxCell>
        <mxCell id="qwBd8NuF4paR_e0xq4lC-13" value="Parent" style="text;html=1;align=center;verticalAlign=middle;whiteSpace=wrap;rounded=0;fontStyle=2" vertex="1" parent="1">
          <mxGeometry x="306" y="600" width="44" height="20" as="geometry" />
        </mxCell>
        <mxCell id="qwBd8NuF4paR_e0xq4lC-15" value="Parent" style="text;html=1;align=center;verticalAlign=middle;whiteSpace=wrap;rounded=0;fontStyle=2" vertex="1" parent="1">
          <mxGeometry x="360" y="730" width="44" height="20" as="geometry" />
        </mxCell>
        <mxCell id="qwBd8NuF4paR_e0xq4lC-16" value="Parent" style="text;html=1;align=center;verticalAlign=middle;whiteSpace=wrap;rounded=0;fontStyle=2" vertex="1" parent="1">
          <mxGeometry x="240" y="730" width="44" height="20" as="geometry" />
        </mxCell>
        <mxCell id="qwBd8NuF4paR_e0xq4lC-18" value="&lt;font style=&quot;font-size: 24px;&quot;&gt;&lt;b&gt;Tail&lt;/b&gt;&lt;/font&gt;" style="text;html=1;align=center;verticalAlign=middle;whiteSpace=wrap;rounded=0;" vertex="1" parent="1">
          <mxGeometry x="140" y="700" width="66" height="30" as="geometry" />
        </mxCell>
      </root>
    </mxGraphModel>
  </diagram>
</mxfile>
